<?xml version="1.0" encoding="utf-8"?>
<!-- Generator: Adobe Illustrator 22.0.1, SVG Export Plug-In . SVG Version: 6.00 Build 0)  -->
<svg version="1.1" id="logo_transparent" xmlns="http://www.w3.org/2000/svg" xmlns:xlink="http://www.w3.org/1999/xlink" x="0px"
	 y="0px" viewBox="0 0 600 600" style="enable-background:new 0 0 600 600;" xml:space="preserve">
<style type="text/css">
	.st0{fill:#29458E;}
	.st1{fill:#FFFFFF;}
	.st2{fill:none;stroke:#FFFFFF;stroke-width:2;stroke-miterlimit:10;}
	.st3{filter:url(#Adobe_OpacityMaskFilter);}
	.st4{mask:url(#SVGID_1_);fill:#FFFFFF;}
	.st5{filter:url(#Adobe_OpacityMaskFilter_1_);}
	.st6{mask:url(#SVGID_2_);fill:#FFFFFF;}
	.st7{display:none;fill:#FFFFFF;}
</style>
<rect x="0" y="0" class="st0" width="100%" height="100%" rx="50%" ry="50%"/>
<g>
	<path class="st1" d="M300.5,16.8c156.4,0,283.2,126.8,283.2,283.2S456.9,583.2,300.5,583.2S17.2,456.4,17.2,300
		S144.1,16.8,300.5,16.8 M300.5,10.8c-39,0-76.9,7.6-112.6,22.7c-34.4,14.6-65.4,35.4-91.9,62S48.5,153,34,187.4
		C18.9,223.1,11.2,261,11.2,300s7.6,76.9,22.7,112.6C48.5,447,69.4,478,96,504.5s57.5,47.4,91.9,62c35.7,15.1,73.5,22.7,112.6,22.7
		s76.9-7.6,112.6-22.7c34.4-14.6,65.4-35.4,91.9-62s47.4-57.5,62-91.9c15.1-35.7,22.7-73.5,22.7-112.6s-7.6-76.9-22.7-112.6
		c-14.6-34.4-35.4-65.4-62-91.9s-57.5-47.4-91.9-62C377.4,18.4,339.5,10.8,300.5,10.8L300.5,10.8z"/>
</g>
<polygon class="st2" points="269.1,397.6 268.8,397.9 268.2,398.6 267.8,398.8 267.5,398.9 267.2,399 267,399.1 266.9,399.4 
	266.7,399.7 266.3,400 265.2,400.6 266.8,399.9 268.9,398.4 273.7,393.8 272.3,394.6 "/>
<path class="st2" d="M306.7,360.5"/>
<path class="st2" d="M311.7,367.3c0.2,0,0,0.1,0,0.1l0.1,0.5l0.3,0.6l0.3,0.5l0.3,0.3l0.3,0.2l1.3,0.3l0.3,0.2l0.3,1.1l0.3,0.3
	l0.5-0.6l0.2,0l0.4-0.2l0.2,0l0.2-0.1l0.3-0.4l0.2-0.1l0.1,0.1l0.3,0.5l1.4,0.8l1.5-0.2l2.8-1.6l0.5,0.1l0.6-0.3l0.5-0.4l0.5-0.2
	l-0.2,0.5l-0.3,0.3l-0.3,0.2l-0.3,0.3l-0.4,0.2l-1,0.1l-0.4,0.3l-1.5,1.2l-0.6,0.8l0.4,0.6l-0.6,0.6l-0.8,0.3l-0.9,0.1l-0.9-0.2
	l-1.1-0.7l-2.3-0.5h-0.4l-1.2,0.2l-1.8-0.4h-1.8l-0.3-0.1l-1.2-0.7l-0.7-0.2l-3.6,0.3l-0.3-0.2l-0.5-0.6l-0.7-0.5l0.3,0.7l2.4,2.5
	l0.3,0.1l0.2,0.2l0.5,1.3l0-0.9l0-0.3l0.1-0.2l0.1-0.2l0.3-0.3l0.3-0.2l0.5,0l0.5,0.1l2.9,1.2l0.9,0.2l0.8-0.1l0.3,0.1l0.9,1.3
	l0.2,0.4l-0.2,0.1h-0.3l-0.3,0.1l-1.1,1l-0.2,0.1l-1.6,0.3l-1.1-0.3l-0.4,0.1l-0.3,0.2l-0.4,0.3l-0.3,0.4l0.1,0.5l0.3,0.3l0.3,0.2
	l0.4,0.1l1.3,0.1l0.2-0.1l-0.1-0.3l-0.1-0.4l0.1-0.4l1.7,1.3l1,0.6l0.6-0.3l0.6,0.5l0.8,1.1l0.3,0.2l0.3,0.1l0.9,0.3l0.5,0.1
	l0.5-0.1l0.6-0.3l-0.1,0.3l-0.1,0.2l-0.4,0.4l0.1,0.2l0.1,0.4l0.1,0.2l0,0.1l0.1,0.4l0,0.1l0.1,0.1l0.3,0l0.5,0.3l4.2,1.2l0.8-0.1
	l0.2-0.1l0.3-0.4l0.2-0.2l0.2-0.1l2.6-0.5l0.8-0.4l0.3-0.1l0.5,0.1l1.1,0.4l0.2,0l0.5,0l0.2,0l0.2,0.1l0.2,0h0.3l2.2-0.4l0.3-0.4
	l-0.2-0.9l1.2,0.6l0.4,0.3l0.2,0.1h0.2l0.3-0.1l0.2,0l0.7-0.3l0.4-0.8l0.3-0.8l0.5-0.5l-0.2,2.1l-0.1,0.4l-0.2,0.4l1.6-0.2l0.5,0.2
	l0.1,0.3l-0.2,0.4l-0.3,0.3l0.1,0h0.1l0.1,0l0.1,0.2l0.4-0.6l0.5,0.1l0.5,0.5l0.6,0.9l0.2,0.2h1.3l0.4,0.2h0.2l-0.4-0.6l0.2-0.4
	l0.5-0.2l0.5,0v-0.2l-0.5-0.4l0-0.4l0.4-0.4l0.4-0.4l0.5-0.2l0.3,0.3l0.6,1.2l0.1,0.5l-0.2,0.3l-0.2,0.3l0,0.3l0.3,1l0,0.2l-0.2,0.3
	l-0.1,0.3l0,0.2l0.2,0.1l-0.1,0.1l-0.2,0.3l-0.4,0.5l0.3,0.2l0.2-0.1l0.2-0.2l0.2-0.1l0.5-0.1l1.2,0.3l0.4,0.2l0.4,0.3l-0.4,0.2
	l-0.7,0.2l-0.3,0.2l-0.3-0.1l-0.1,0.6l0.1,0.7l0,0.3l-0.4,0.1l-0.2,0l-0.1-0.2l-0.1-0.2l-0.2-0.2l-0.2-0.1l-0.2-0.1l-0.2,0l-0.2,0.1
	l-0.4,0.3l-0.5,0.6l-0.5,0.2l-0.2,0l-0.3-0.1l-0.4-0.3l-0.2-0.1l-0.3,0.1l-0.9,0.6l-0.3,0.1l-0.6,0.7l-0.1,0.2l-0.8,0.3l-1.5,0.9
	l-0.7,0.1l-0.7-0.4l-0.3-0.4l-0.2-0.1l-0.2,0.2l0,0.3l0.2,0.2l0.2,0.1l0.1,0.1l-0.1,0.4l-0.3,0.2l-4.7,2.2l-1.4,1l-0.6,0.7l-0.2,0.2
	l-0.1,0.2l-0.1,0.3l0,0.2l0.1,0.3l0,0.2l-0.3,0.1l-0.2,0l-0.4-0.2l-0.2,0l-0.3,0.1l-0.2,0.2l-0.1,0.2l-0.2,0.2l-0.3,0.2l-0.3,0.2
	l-0.4,0.1l-0.5,0.1l-0.4,0.1l-2.4,1.9l-0.6,0.7l-0.3,0.8l0.1,0.4l0.6,1.6l0.5,0.1l0.7,0.4l0.4,0.2h1.5l0.3-0.2l0.7-0.8l0.3-0.2
	l0.4-0.1l3.1,0.3l0.9,0.3l0.8,0.5l1.3,1.2l0.2,0.1l0.4,0.2l0.2,0.1l0.2,0.4l0.2,0.3l0.5,0.3l0.7,0.9l0.3,0.3l0.9,0.3l0.4,0.2
	l0.2,0.4l0.2,0.3l0.5-0.1l0.7-0.4l0.8-0.3l0.9-0.1l0.4,0.2l1.1,1.1l1.4,0.9l0.5,0.7l0.3,1.2l0.1,0.8l0.1,0.3l0.4,0.7l0.1,0.2
	l0.1,0.5l0.2,1.2v0.7l-0.1,0.6l-0.1,0.5l-0.2,0.4l-0.8,0.3l-0.3,0.4l-0.2,0.5l-0.1,0.6l-0.1,0.2l-0.1,0.1l-0.2,0.1l0.2,0.4l0.1,0.4
	l0.1,0.8l0.2,0.6l0,0.3l-0.1,0.5l-0.2,0.3l-0.3,0.3l-0.2,0.4l0,0.4l0.2,0.2l0.7,0.1l0.3,0.1l-0.4,0.2l-1.1,0l-0.3,0.1l-0.2,0.1
	l-0.2,0l-0.4,0l-0.2,0.1l-0.5,0.3l-0.2,0.1l-0.6,0.1l-0.1-0.1l0,0.3l0.2,0.3l2.2,1.6l0.3,0.3l0.4,0.3l0.4,0l0.4-0.1l0.4,0l0.2,0.2
	l0.6,0.8l0.1,0.3l0.1,0.6l0.3,0.3l1.6,0.7l0.4,0.1l1.4,0l0.2,0l0.4-0.1h0.3l1.3,0.5l0.5,0.1l0.4-0.1l2.2-1.1l0.5-0.1l0.3-0.1
	l0.7-0.5l0.2-0.2l0.3-0.5l0.2-0.4l0.3-0.3l1-0.2l0.3-0.2l0.4-0.7l0.1-0.1v-0.2l0.1-0.1l0-0.1l0.2,0h0.3l0.5,0.1l0.2-0.1l0.2-0.4
	l0.8-2.1l0.7-1.2l0.2-0.3l0.1-0.2l0.8-1.2h0.1l0,0v0.1l0,0.1l0.5-0.6l0.7-0.3l1.7-0.4l0.8-0.3l1.5-1l0.8-0.3l1.4,0.3l0.3-0.2
	l0.3-0.2l0.7,0.2l0.4-0.1l0.2-0.1l0.1-0.2l0.2-0.2l0.2-0.1l0.2,0l0.7,0l0.4,0.2l0.3,0.4l0.2,0.4l0.2,0.3l0.9,0.1l0.6-0.9l0.4-1.3
	l0.5-0.9l0.4-0.2l0.9-0.2l0.4-0.3l0.5-1l0.4-0.3l0.5,0.3l0.1-0.1l0.2-0.2l0.1-0.1l1,0.8l-0.1-0.9l0-0.4l0.2-0.3l0.3-0.1l0.7,0.1
	l0.3-0.1v-0.2l-0.6-0.3l-0.1-0.1l-0.1-0.3l0.1-0.2l0.1-0.2l0.1-0.3l0.2-0.2l1.1-0.9l0.8-0.4l0.9-0.2h0.9l0.9,0.2l1.5,0.6l1.4,0.9
	l0.2,0.2l0.6,0.8l0.1,0.3l0.2,0.7l0.4,0.2l1.4-0.3l1.6,0.1l0.3-0.3l0.4-0.7l0.5-0.5l0.7,0.3v-0.2l1.2,0.7l1.8,0.4l0.4-0.1l0.1-0.2
	l0.1-0.5l0.1-0.2l0.2-0.1l0.2-0.1l1.8-0.1l1.5-0.6l0.3-0.3l0.1-0.4l-0.3-0.4l-0.6-0.6l-0.1-0.6V413l0.2-1.7l0.2-0.6l0.2-0.6l0.3-0.4
	l0.2-0.1l0.5,0l0.2-0.1l0.1-0.3l-0.1-0.1l-0.1-0.1l-0.1-0.2l0.1-0.6l0.3-0.3l0.4-0.1l0.5,0.1l0.6,0.3l0.2,0.1h0.3l0.7-0.2l0.2-0.3
	L408,407l-0.4-1l-0.3-0.4l-0.3-0.2l-0.3,0.1l-0.4,0.4L406,406l-0.3-0.3l-0.5-0.7l-0.4-0.1l-1.2,0.3l-0.4-0.1l-0.6-0.4l-0.4-0.1
	l-0.2,0.1l-0.2,0.2l-0.2,0.2h-0.3l0.2-0.5l-0.2-0.4l-0.3-0.1l-0.3,0.3l-0.3,0.3l-2.4,0l-0.4,0.2l-0.4,0.4l-0.6,0.4l-0.1,0.1
	l-0.3,0.9l-0.6,0.8l-0.8,0.2l-0.8-0.3l-1.6-0.9L392,406l-0.2-0.4l0.1-0.5l0.2-0.5l-0.1-0.3l-0.5-0.1l-0.3,0.2l-0.3,0.4l-0.2,0.6
	l-0.1,0.6l-0.1,0.1l-0.3,0.4l-0.1,0.1l-0.3,0.1l-0.1,0.2l0,0.3l-0.1,0.3l-0.6,0.6l-0.4,0.3l-3.7,1l-0.8-0.1l-3.1-2.2l-6-8.9
	l-1.8-3.6l-1.1-3l-0.2-0.4l-0.2-0.3l-0.2-0.4L371,387l-0.2-0.5l-0.1-0.4l-0.1-1.9l-0.1-0.5l0-0.2l0-0.3l0.1-0.3l0.4-0.5l0.1-0.1
	l0.9-0.4l0.1-0.3l0-0.3l0.2-0.3l0.2-0.1l0.1,0.1l0,0.2l0.1,0.2l0.3,0.1h0.2l2-0.5l0.9-0.6l0.7-0.8l1.2-1.9l0.7-0.7l0.2-0.3l0.1-0.5
	l-0.1-0.3l-0.1-0.2l-0.1-0.4l-0.2-0.4l-0.4-0.6l-0.2-0.6l0.4-0.6l0.1,0.6l0.2,0.6l0.3,0.4l0.3,0.2l0.3,0.3l0.2,0.1l0.2,0.1l0.3,0
	l0.2,0.1l-0.4,1.1l-0.1,0.8l0.2,0.7l0.5,0.4l0.4,0l0.4-0.3l0.4-0.4l-0.1,0.8l-0.3,0.5l-0.8,0.8l-0.6,1.1l-0.2,0.5l-0.5,0.6l-0.6,1.2
	l-1.1,0.6l-2.2,0.7l0.1,0.3l0.1,0.1l-0.7,0.5l-0.7,0.8L374,386l0.4,0.1l0.8-0.4l0.5-0.4l0.7-0.2l0.5-0.4l0.8-0.3l0.5-0.5l0.5-0.7
	l1.1-2.3l0.4-0.5l2-3.3l0.3-0.3l0.7-0.5l0.3-0.3l0.6-0.9l0.3-0.4l0.4-0.3l2.4-1.3l0.7-0.6l1.7-2l0.6-0.5l1.1-0.7l1.5-0.9l0.5,0
	l2.8-0.6l1.5,0.2l0.8-0.2h0.4l0.4,0.2l0.1,0.1l0.1,0.1l0.2,0.4l0.1,0.1l0.2,0.2v0.2l0,0.2l-0.1,0.1l0.1,0.3l0-0.1l0-0.2l0.2-0.1
	l0.2-0.1l0.1,0.1v0.4h0.2l0.1-0.9l0.4-0.7l1.4-1.5l0.6-0.5l0.7-0.3l1-0.2l0.9-0.5h1.4l0.2-0.1l0.2-0.2l0.2-0.2l0.3-0.1l0.6,0.2
	l0.4,0l0.3-0.2l0.3,0.2l0.7,0.2l0.3,0.2l0.8,0.9l0.2,0.1v0.6l-0.3,1.1l-0.4,0.8l-0.4-0.2h-0.2v0.2l0.5,0.2l0.5-0.5l0.4-0.8l0.2-0.8
	l0.2-0.7l0.4-0.7l0.3-0.7l-0.2-0.7l0.7-0.1l1.1-1.1l0.7-0.3l0.2-0.1l0.7-0.6l0.2-0.1l0.4-0.1l2.4-7.9l1-0.8l0.4-0.1l0.7,0.1l0.7,0.4
	l0.5,0.6l-0.1,0.8l0.5-0.2l0.3-0.5l0.5-1.1l2.2-3.1l1.3-1.4l0.7-0.3l2.7,0.5l0.9,0l2.2-0.8l1.8,0.3l0.2-0.1l0.5,0.1l0.8,0.3l0.2-0.1
	l0.5-0.3l0.1-0.1l0.1-0.1l0.7,0.6l0.5,0.2v0.5l-0.5,1l0.7-0.3l1.1-1.6l0.4-0.4l-0.3-0.8l-0.1-1l0.1-0.9l0.4-0.7l0.4-0.3l0.5-0.2
	l0.4-0.3l0.3-0.4l0.1-0.6l-0.2-0.3l-0.3-0.2l-0.4,0l-0.8,0.1l-0.4-0.1l-0.3-0.3l0.1-0.5l0.3-0.6l0.6-0.9l0.5-0.9l0.1-0.9l-0.1-2.2
	l0.3-1.1l0.4-1.1l0.5-0.9l0.7-0.5l4.3-0.6l0.5-0.2l0.4-0.3l0.8-0.9l0.4-0.3l0.3-0.1l0.7,0.3l0.4-0.1l0.2-0.5l0.2-1.3l0.4-1.4
	l0.5-1.2l0.7-0.9l1-0.4l3.4,0.1l1.1,0.8l0.4,0.1l0.4,0l0.8-0.2l3.1-0.1l0.4,0.1l0.7,0.5l0.4,0.2l0.5,0l0.9-0.3l0.5,0.2l0.6,0.1
	l1.3-0.3l0.6,0.1l2.1,0.6l0.7-0.1l0.5-0.5l0.3-0.8l0.2-0.9l0-0.2l-0.1-0.4v-0.2l0.1-0.3l0.2-0.5l0.1-0.2l0.1-0.5l0-0.3l-0.3-0.7
	l-0.2-0.3l-0.2-0.2l-0.1-0.2l0.2-0.3l0.2-0.2l1.1-0.2l0.1,0l0.1-0.1l0-0.3l-0.3-1l0.1-0.7l0.3-0.6l1-2l0.4-0.5l1-0.8l0.4-0.4
	l0.3-0.6l0.1-0.6l-0.3-0.5L477,311l-1.1,0.4l-0.4,0.1l-1.4-0.9l1.4-1.2l0.4-0.5l0.5-0.5l-0.2-0.3l-0.2-0.4l-0.2-0.8l-0.6-1.4
	l-0.2-0.2l-0.2-0.3l-0.1-0.5l0.1,0l0.2,0l0.2-0.1l0.1-0.3l0-0.1l-0.1-0.1l-0.1-0.2l0-0.2l-0.2-0.8l-0.4-0.6l-0.5-0.3l-2.5-0.3
	l-0.4,0.2l-0.8,0.1l0.2-0.8l1.3-4.3l0.2-0.3l0.5-0.2l0.2-0.3l0.1-0.4l0.2-0.3l0.4-0.5l0.4-0.2l0.5,0l2.3,0.9l0.8-0.1l0.9-0.7
	l0.4-0.5l0.3-0.6l-0.1-0.6l-0.4-0.5l-0.5-0.1l-0.4,0.4l-0.4,0.5l-0.4,0.2l-0.3-0.1l-0.4-0.5l-0.2-0.2l-0.2-0.1l-0.7,0.1l-1.6-0.4
	l-0.5-0.2l-0.2-0.3l-0.2-0.4l-0.3-0.6l-0.4-0.4l-0.4-0.3l-0.3-0.4l0.2-1.6l0.4-0.3l1,0.1l1.7-0.6h0.6l0.6,0.1l0.3,0l0.2-0.2l0.1-0.3
	l-0.1-1l0.1-0.4l0.4-0.8l0.6-0.6l1.2-0.8l0.4-0.4l0.7-1.1l0.4-0.3l0.5-0.3l0.2-0.3l0-1.2l0.3-1.1l0.1-0.6l-0.2-0.5l-1-1.2l-0.8-1.3
	l-0.4-0.9l-0.1-1l0.4-1.1l0.4-0.3l0.8-0.5l0.3-0.4l0.1-0.7l-0.3-0.3l-2-0.6h-0.4l-0.5,0.2l-1.2,1.3l-0.5,0.3l-0.6,0.2l-0.6,0.1
	l-0.6,0l-0.4-0.2l-1.1-1.1l-0.8-0.4l-0.7-0.2l-0.6-0.4l-0.5-1.1l-0.3-1.4l-0.2-0.7l-0.3-0.3l-1.2-0.1l-0.4-0.2l-0.8-0.5l-0.8,0.2
	l-0.8,0.4l-0.8,0.2L463,265l-0.6-0.4l-0.5-0.7l-1.1-3l-0.5-0.5l-0.8,0.3l-0.4,0.4l-0.7,1l-0.4,0.3l-0.3,0.1l-2,0.1l-0.5-0.6
	l-0.5-0.8l-0.7-0.7l-2.2-0.6l-1.2-0.9l-0.1-0.1l-0.1-0.3l-0.1-0.5l-0.2-0.6v-0.1l-0.1,0.1l-0.5,0.2l-0.2,0.1l-0.2,0.1l-1-0.2
	l-1.5,0.3l-0.8-0.3l-0.5-0.3l-0.4-0.2l-0.9-0.1l-0.4-0.2l-0.2-0.4l-0.6-1.9l-0.3-0.4l-0.4-0.1l-0.6,0.1l-1.3-0.1l-0.3,0.1l-0.2,1
	l0.2,1.5l-0.1,1.4l-1,0.7l-0.2-0.1l-0.4-0.3l-0.2-0.1l-0.3,0.1l-1.4,0.9l-0.1-0.2v-0.5l-0.3,6.4l0-0.1l-0.7-1.2l-0.6-0.8l-0.7-0.6
	l-0.8-0.5l-1.6-0.8l-0.7-0.5l-2-3.1l-0.7-0.7l-0.2-0.2l0-0.3l0.1-0.3l0.2-0.8l-0.1-1.4l-0.7-0.7l-1.8-0.9l-0.3-0.9l-0.3-1.1
	l-0.3-0.8l-0.4-0.2l-2.1,0.3l-0.6,0.3l-1.2,1.3l-0.6,0.5l-3-6.1l-1.5-0.2l-1.4,0.1l-1.4,0.5l-3.4,2.1l-0.3,0.3l-0.2,0.3l-0.3,0.7
	l-0.2,0.3l-0.4,0.3l-0.5,0.1l-0.5-0.1l-0.4-0.2l-0.3-0.3L406,249l0.1-0.3l0-0.7l0.1-0.1l-0.1-0.1l-0.3-0.2l-0.2-0.1l-0.6-0.2
	l-0.6-0.4l-0.5-0.1l-0.4-0.3l-0.2-0.1H403l-0.2,0.1l-0.4,0.4l-0.5,0.3l-0.5,0.2l-0.5,0l-0.5-0.2l-2.1-3.3l-0.6-0.3l-0.2-0.6
	l-0.6-0.3l-3.6,2.7l-2,0.2l-0.4,0.1l-0.3,0.2l-0.4,0.6l-0.2,0.2l-0.2,0.1h-0.4l-0.2,0.1l-0.3,0.4l-0.2,0.4l-0.3,0.3l-0.5,0.2l-0.4,0
	l-0.4-0.1l-0.4-0.2l-0.4-0.3l-0.4-0.5l-0.1-0.5l0-0.6l-0.2-0.8l-0.3-0.6l-0.4-0.3l-0.4-0.2l-0.4-0.1l-0.7-0.3l-0.4,3.2l-1-4l0-0.4
	l0.3-0.4l1.6-0.7l-0.5-0.6l0-0.7l0.1-0.8l-0.2-0.9l-0.2-0.3l-0.2-0.2l-0.5-0.3l-0.3-0.3l0-0.3l0.1-0.4l-0.1-0.5l-0.2-0.4l-0.4-0.6
	l-0.2-0.4l0-0.5l0.1-0.4l0-0.4l-0.3-0.4l-0.3-0.2l-0.5-0.1l-0.2-0.2l-0.1-0.3v-0.9l-0.1-0.4l1.1-0.2l0.3-0.3l0.2-0.6l-0.2-0.4
	l-0.4-0.2l-0.4-0.1l-0.7-0.1l-1.4,0.3l-0.7-0.1l-0.6-0.6l-0.4-1.1l-0.5-3.1l-0.2-0.5l-0.3-0.3l-0.4-0.2l-0.4,0.1l-0.4,0.2l-0.4,0.1
	l-0.4-0.3l-0.4-0.2l-0.3,0l-1,0.6l-1.7,0.7l-1.4,0.3l-1.5-0.1l-0.4-0.1l-0.3-0.3l-0.2-0.5l-0.1-0.5l-0.1-0.4l-0.3-0.3l-0.6-0.1
	l-1.3,0.2l-0.7-0.3l-1.5-0.5l-0.8-0.1l-0.7,0.2l-0.8,0.7l-0.4,0.2L359,223l-1.5-0.7l1.2-0.8l0.8-0.9l0.5-1.1l-0.2-1.1l-0.4,0.2h-0.3
	l-0.4-0.1l-0.3-0.2l-0.3-0.2l-0.4-0.4l-0.2-0.3l-0.1-0.3l0.1-0.2l0.5-0.1l0.1-0.3l0.1-0.3l-0.1-0.3l-0.1-0.3l0-0.3l0.1-0.3l0.2-0.6
	l0.1-0.3l-0.1-0.7l-0.2-0.6l-0.3-0.5l-0.9-1l-0.2-0.3l-0.1-0.3l-0.1-0.7l-0.1-0.2l-0.3-0.2l-0.7-0.2l-0.2-0.3l0.2-0.8l0.8-0.5
	l3.5-0.8l1.2,0l0.4-0.1l0.8-0.9l0-1.4l-0.6-1.3l-0.8-0.8l-0.4-0.3l-0.7-0.8l-0.4-0.3h-0.2l-0.4,0.2l-0.2-0.1V201l-0.1-0.5l-0.1-0.2
	l-0.1-0.1l-0.3-0.2l-0.1-0.1l-0.8-1l-0.4-0.3h-1v-0.3l0.2-0.5l-0.1-0.6l-0.4-0.7l-0.3-0.6l-0.1-0.7l-0.1-1.1l-0.1-0.6v-0.2l0.4-0.8
	v-0.4l-0.1-0.3l-0.1-0.3l-0.2-0.4l-0.3-0.6l-0.3-0.4l-1.3-0.9l-0.3-0.4l-0.5-1.2l-0.4-0.6l-0.9-0.6l-0.4-0.4l-0.3-0.6l-0.2-0.5
	l-0.2-0.3l-0.5-0.2l-0.9,0l-0.9,0.2l-1.8,0.9l-1.4,1.4l-0.4,0.1l-0.4-0.6l0.1-1.3l-0.4-0.6l-0.3,0.2l-0.3,0.3l-0.3,0.2l-0.4,0
	l-0.3-0.2l-0.6-0.4l-0.4-0.1h-1.3l-2-0.4l-0.3,0.1l-0.3,0.2l-0.5,0.7l-0.3,0.3l-0.4,0.2l-0.2,0.1l-0.2,0.5l-0.2,0.2l-0.2,0.1
	l-0.3-0.2l-0.2,0l-0.4,0.2l-2.1,1.9l-0.4,0.2l-0.4-0.1l-0.6-0.5l-0.3-0.2h-0.6l-1.2,0.3h-0.6l-4.1-2.2l-1,0.3l-1.8-0.7l-0.8,0.2
	l-0.3,1.2l0.1,0.4l0.4,0.7l0.1,0.3l-0.1,0.4l-0.2,0.2l-0.3,0.2l-0.2,0.2l-0.2,0.6l-0.3,2.1l-0.6,1.3l-0.9,0.7l-2.9,1.4l-0.4,0
	l-1.3-0.3l-0.8,0.1l-1.1,0.6l-0.3,0.1l-0.4-0.2l-0.1-0.5v-0.6l-0.1-0.6l-0.5-0.5l-0.7-0.1l-1.3,0.1l-2.4,0.1l-3.6-0.7h-1.9l-1.6,0.7
	l-0.4,0.5l-0.3,0.7l-0.3,0.6l-0.5,0.2l-0.5-0.2l-1-0.8l-0.5-0.3l-0.8-0.1l-2.8,0.2l-0.5,0.2l-0.3,0.4l0.1,0.6l-0.1,0.2l-0.1,0.2
	l-0.1,0.2l-0.1,0.2l0.6,0.1l0.2,0.5l-0.2,0.4l-0.5,0l-0.1-0.2l-0.1-0.1l-0.1,0.1l-0.2,0.1l-0.2,0.2l-0.1,0.2v0.3l-0.2,0.3l-0.2,0.3
	l-0.3,0.2l-0.3,0.2l-0.6,0.2v0.1l0.1,0.2l0.1,0.1v0.2l-0.3,0.4l-0.2,0.2l-0.2,0.1l-0.6-0.1l-0.2,0.1l-0.1,0.2v0.3l-0.1,0.3l-0.4,0.2
	l-0.1,0.2l-0.1,0.2l-0.1,0.1l-0.1,0.1l-0.4,0.6l-0.1,0.2l-0.1,0.1v0.1l0.2,0.3l0,0.5l-0.4,0.4l-0.5,0.3l-0.3,0.3l0.4,0.2l0.2,0v0.3
	l-0.2,0.3l-0.1,0.4l0,0.4l-0.1,0.3l-0.2,0.1l-0.7,0l-0.3,0.1l0.1,0.4l-0.2,0.7l0.1,0.5l-0.2,0.1l-0.2,0.3l-0.1,0.1l0.1,0.1l0.1,0.3
	l-0.3,0.1l-0.6,0.6v0.2l0.4,0.3l0.2,0.1v0.2l-0.2,0.1l-0.1,0.1l-0.1,0.1l-0.1,0.1v0.2l0.2,0.3l0.7,0.2l0.3,0.2l-0.2,0.4l-0.1,0.2
	l-0.2,0.2l0.3,0.2l0.2,0.2l0.1,0.3l-0.1,0.3l0.1,0.4l0.2,0.3l0.2,0.1l0.2,0.1v0.2l-0.3-0.1l-0.2,0.1l-0.2,0.2l-0.1,0.4l0.1,0.4
	l0.2,0.1h0.2l0.3,0.2l0.1,0.2l0.2,0.9l0.1,0.2l0.2,0.2l0,0.2l-0.3,0.1l0.1,0.9l-0.6,0.6l-0.6,0.5l-0.1,0.5l-0.4,0.7l-0.1,0.1l0,0.8
	l-0.1,0.2l-0.2,0.1l-0.2-0.3l-0.2-0.3l-0.3-0.2l-0.3-0.1l-0.3,0l-0.3-0.1l-0.5-0.7l-0.3-0.3l-0.3-0.1h-0.6l-0.3-0.1l-0.3-0.3
	l-0.6-0.8l-0.2-0.3l0.1,0l0.2-0.7l0-0.3v-0.3l0-0.3l-0.1-0.2l-0.2-0.2l-0.3-0.3l-1-0.5l-0.3-0.3l-0.8-1.1l-0.6-0.4l-0.6-0.2
	l-2.9,0.1l-0.5,0.2l-1.2,0.7h-0.3l-0.3-0.2l-0.2,0l-0.3,0.2l-0.3,0.6l-0.2,0.2l-0.4,0.1l-1.9-0.3l-0.3-0.4l-0.2-0.5l-0.3-0.6
	l-0.4-0.3l-0.4-0.1l-0.5,0.1l-0.4,0.2l-0.4,0.4l-0.2,0.4l-0.3,0.4l-0.5,0.2l-0.5,0.1l-0.3,0.2l-0.2,0.4l-0.3,0.8l-0.3,0.6h-0.4
	l-0.9-0.4l-0.5,0.2l-0.8,0.7l-0.4,0.2l-0.5-0.3l-0.3-0.6l-0.2-0.7l-0.2-0.7l-0.4-0.5l-0.3-0.3l-0.1-0.4l0.2-0.9l-0.1-0.9l-0.2-0.6
	l-0.7-1.1l-0.4-1.2l-0.3-0.4l-0.5-0.3l-0.8-0.2l-0.4,0l-0.4,0.2l-0.4,0.4l-0.5,1.1l-0.4,0.4l-0.5,0.2h-1.3l-0.6,0.1l-0.6,0.4
	l-0.7,0.5l-0.6,0.7l-0.4,0.9L245,215l0.1,1.3l-0.1,0.5l-0.4,0.4l-0.2-0.3l-0.2-0.6l-0.2-0.4l-0.3,0l-0.3,0.2l-0.3,0.1l-0.3-0.2
	l-0.2-0.3l-0.1-0.5l-0.3-1.9l-0.1-0.7l-0.2-0.4l-0.5-0.2l-1.8-0.4H239l-0.5,0.2l-1,0.7l-0.5,0.5l-0.3,0.2l-0.3-0.1l-0.1-0.3
	l-0.2-0.9l-0.1-0.3l-0.3-0.3l-0.6-0.4l-0.3-0.3l-0.2-0.4l0-0.3v-0.3l-0.1-0.3l-0.3-0.3l-0.4,0l-0.5,0.2l-0.4,0.4l-0.4,0.6l-0.7,1.3
	l-0.5,0.4l-0.4,0.2h-2l-0.4-0.1l-0.4-0.2l-1.2-1.4l-0.4-0.2l-0.5,0.1l-0.4,0.4l-0.3,0.6l-0.1,0.7v0.4l0,0.4l0,0.4l-0.1,0.4l-0.1,0.2
	l-1,1.3l-0.2,0.2l-0.3,0.1l-0.3-0.1l-0.3-0.3l-0.3-0.3l-0.1-0.3l0.7-1.7l0.2-0.8l-0.3-0.7l-0.3-0.2l-1.2,0l-2.2-0.9l-0.7,0l-0.4,0.2
	l-0.6,0.6l-0.4,0.2l-0.4,0l-1.2-0.2l-0.8,0.3l-0.4,0.1l-0.3-0.3l0.1-0.6l0.3-0.7l0.1-0.6l-0.6-0.2l-0.5,0.1l-0.4-0.1l-0.3-0.3
	l-0.2-0.7v-0.9l0.1-0.7l-0.1-0.5l-0.5-0.3l-0.9-0.2l-1.8-0.1l-2.1,0.7l-1.4-0.2l-3.9-1.8l-4.6-0.2l-0.3-0.2l-0.3-0.4l-0.1-0.3
	l0.1-0.3v-0.2l-0.2-0.1l-4.8-0.2l-0.6-0.3l-1.3-1.2l-0.6-0.1l-1.4,0.1l-4.4-0.8l-1.7,0.3l-6.9-0.1l-3.5-0.9l-0.9,0l-0.9,0.3l-1.8,1
	l-5.8,0.9l-0.4,0l-1.3-0.3l-5.2,0.4l-0.4,0.2l-0.4,0.5l-0.8,1.1l-0.3,0.7l-0.5,2.2l-0.6,0.8l-2.3,1.6l-3.1,2.8l-0.8,0.1l-0.6-0.6
	l-0.6-0.7l-0.8-0.3l-0.5-0.1l-1.5-0.4H141l-2,0.5l-0.3,0.1l-0.2,0.2l-0.3,0.4l0,0.3l0.1,0.3l0.6,1.6l0.1,0.3l-0.1,0.5l-0.2,0.1
	l-0.2-0.2l0,0.2l0.1,0.5l0.5,0.2l0.4,0.1l0.3,0.2l-0.3,0.7l0,0.2l0.8,1.3l0.2,0.4l-0.2,0.1l-0.2,0.2l0,0.3l0.1,0.4l-0.4,0.2
	l-0.4,0.4l-0.3,0.5l-0.1,0.4l0.1,0.7l0.3,0.2h0.4l0.3,0.2l1.1,2.6l0.5,0.6l1,0.7l1,1l0.2,0.4l-0.3,0.2l-0.1,0.3l0.3,0.7l0.5,0.8
	l0.2,0.4l0.2,1.4v0.2l-0.1,0.3l0.2,0.1l0.3,0.1l0.3,0.2l0.2,0.3l0.1,0.3l0,0.3l0.1,0.4l0.3,0.5l1.4,1.3l1.7,1l0.3,0.4l-0.3,0.6
	l-0.6,0.1h-0.7l-0.4,0.2l-0.5-0.3l-0.6,0.1l-0.5,0.4l-0.3,0.6l0,0.6l0.3,0.4l0.5,0.2l0.6,0.1v0.2l-0.3,0.6l0.3,0.5l0.6,0.3l0.5,0.1
	l-0.1,0.8l0.2,0.7l0.5,1.3l-0.5,0.8l0.2,1.6l0.1,0.4l0.1,0.1l0,0.1l-0.3,0.4l-0.4,0.4l-1.3,0.7l-0.1,0.4l0,0.6l0,0.4l-0.1,0.3
	l-0.5,1.1l-1.1,0.5l-3.7,0.1l-0.7,0.2l-0.4,0.2l-0.3,0.3l-0.2,0.5l-0.3,0.9l-0.3,0.4l-1.6,1.8l-0.6,0.5l-1.1,0.9l-0.9,0.7l-4.7,5.2
	l-0.6,1l-0.8,0.6l-0.8,0.9l-2.2,3.3l-0.9,0.9l-0.1,0.3l-0.2,0.7l-0.1,0.2l-0.2,0.2l-0.4,0.1l-0.2,0.1l-0.2,0.2l-1.3,2.3l-0.3,0.4
	l-0.2,0.1l-0.4,0.1l-0.2,0.2l-0.2,0.3l-0.4,1l-1.6,2.1l-0.5,1.2l0.4,1.2l0.1,0.5l0.1,1.4l0.1,0.4l0.1,0.2l0.3,0.4l0.4,0.5l0.1,0.2
	l0.1,0.5l0.3,2.9l-0.1,0.5l-0.3,1l-0.3,1.1l-0.3,0.7l-0.1,0.4l0.1,0.2l0.1-0.1l0.3-0.3l0.3,0.2h0l-0.1,0l0.7,0.5l0.6,0.8l0.4,0.3
	l0.9,0.5l0.3,0.3v0.3l-0.2,0.6l0,0.4l0.1,0.3l0.3,0.6l0.1,0.2l-0.2,0.5l-0.4-0.2l-0.5-0.4l-0.4-0.2l-0.2-0.1l-0.4-0.6l-0.2-0.2
	l-0.2,0l-0.5,0.2l-0.8-0.1l-0.4,0.1l-0.4-0.1l-0.5-0.3l-0.8-0.9l-0.4-0.1l-0.4,0.4l-0.2,0.5l-0.2,0.7l-0.1,0.7v0.5l-0.3,0.3
	l-0.8,0.1l-0.4,0.3l-0.4,1.3l-0.3,0.6l0,0.2v0.4l-0.1,0.2l-0.2,0.3l-0.5,0.4l-0.2,0.3l-0.1,0.4v0.2l0,0.3l0.1,1.1l-0.1,0.2l-0.2,0.4
	l-0.2,0.3l-0.2,0.2l-0.2,0.2l-0.1,0.4l0,0.7l-0.1,0.7l-0.3,0.6l-0.3,0.4l-0.3,0.2l-0.5,0.2l-0.3,0.2l-0.2,0.2l-0.2,0.5l-0.1,0.2
	l-1.4,1.1l-0.3,0.5L108,310l0.2,1.3l-0.1,0.5l-0.2,0.5l0,2.3l0.5,0.1h0.1l0.2-0.2l0.7-0.3l0.7,0.1l0.7,0.4l-0.3,0.9v0.5l0.6,0l0.2,0
	l0.2,0.3v0.3l-0.1,0.4l0,0.4l0.2,0.6l1,1.6l0.1,0.1l0.2,0l0.2-0.1l0.2-0.1l0.1,0h0.2l0.4,0.2l0.3,0.1l0.3,0l0.4-0.2h0.1l0.1,0l0.1,0
	l1.5,2.1l0.3,0.6l0.3,1l0.4,0.7l0.1,0.1h0.1l0.3-0.2h1.5l0.4-0.1l0.3-0.2l0.4-0.1l0.3,0.2l0.1,0.2l0.8,0.4l0.6,0.6l0.3,0.3l0.2,0.4
	l0.2,0.6l-0.1,0.3l-0.1,0.3l0,0.5l-0.4,0.4l0.2,0.4l0.8,0.6l0.4-0.1l0.4-0.3l0.2-0.4l-0.2-0.7l0.2-0.4l0.3,0l0.4,0.2l0.3,0.2
	l0.3,0.2l0.3,0.1l0.3-0.1l0.9-0.7l0.3-0.5l0.5-1.4l0.4-0.6l0.4-0.2l0.5,0.1l1.4,0.5l0.4,0.3l0.9,1l1,0.8l0.5,0.6l0.2,0.1l0.2,0h0.2
	l0.2-0.1h0.1l1.4,0.7l0.4,0l0.2-0.1l0.1-0.2l0.1-0.2l0.1-0.2l0.2-0.2l0.2-0.1l0.8-0.2l0.4,0.1l1.3,0.2l0.9,0.3l0.5,0.1l1.4-0.1
	l0.3,0.2l1.1,1l0.1,0.5h0.4l2.1-0.9l0.6,0l0.3,0.3l1,0.3l0.4,0.2l0.8,0.7l0.4,0.1l0,0l1.2,0.5l0.4,0l1.5-0.8l1,0l0.8-0.7l0.5-0.3
	h0.4l1.2,0.3l1.2,0l0.4,0.1l1,0.6l0.5,0.4l0.3,0.4l0.1,0.5l0,0.4l0.1,0.4l0.4,0.4l0.7,0.4l1.7,0.7l0.3,0.3l0.3,0.4l0.7,1.3l0.5,0.8
	l0.4,0.3l2.4-0.4l1.3-0.6l0.9-0.8l2-3.4l0.9-0.6l10.2-1.1l1.4-0.6l1.1-0.1l0.6-0.3l0.3-0.1l1,0.1l1.3-0.4l2,0l1-0.4l0.2-0.3l0.5-1.1
	l0.3-0.3l0.5-0.5l0.3-0.3l0.3-0.7l0.3-1l0.2-1l0-0.7l0.2-1l0.2,0.1l0.4,0l0.4-0.1l0.7-0.3l0.3-0.1l1-0.1l0.3-0.1l2.6-0.6l0.6-0.3
	l0-0.3l0.1-0.4l0.2-0.4l0.7-0.4l0.1-0.4l0.1-0.3l0.4,0.2l0.3,0.3l0.2,0.4l0.3,0.3l0.4,0.2l0.4,0l0.2-0.2l0.1-0.4V317l-0.1-0.6
	l-0.1-0.4l0-0.3l0.2-0.3h0.1l0.3,0.1h0.2l0.2-0.2l0.1-0.2l0.1-0.2l0.2-0.1l0.7,0.3l0.7,0.6l0.7,0.4l0.8-0.1l0.2-0.2l0.2,0l0.1,0.1
	l0.2,0l0.3,0.1l0.1-0.1l0-0.2l-0.1-0.2l0-0.1v-0.2l-0.1-0.3l0-0.2l0.2-0.1l0.2,0.1l0.4,0.3l2.2,0.8l0.7,0l0.8-0.4l1.3-1.6l0.8-0.4
	l0.4,0.1l0.6,0.6l0.3,0.1l0.3-0.2l1.2-1.1l0.5-0.7h0.9l0.2-0.1l0.5-0.4l0.4,0.1l0.1,0.8l0.4,0.2l2.6,0l0.7,0.3l1.3,1l0.3,0.3l0.6,1
	l0.2,0.2l0.5,0.7l0.8,0.3l1.8,0.2l0.4,0.2l0.3,0.4l0.1,0.6l-0.4,1.2l0.3,0.2l0.5,0l0.3-0.1l0.6-0.6l0.3-0.1l0.2,0.5l0.1,0.6l0.2,0.4
	l0.3,0.1l0.5-0.1l0.4-0.3l0.3-0.3l0.3-0.2l1-0.1l0.4,0.1l0.2,0.3l0.1,0.6l-0.2,0.6l-0.2,0.3l-0.3,0.2L236,322l-0.1,0.4l0.1,0.4
	l0.2,0.3l0.4-0.1l0.3-0.4l0.2-0.5l0.3-0.4l0.5-0.1l0.3,0.2l0.2,0.4l0,0.5l-0.3,0.4l0.6,1.2l0.3,0.3l0.4,0.3l0.2,0l0.1-0.3v-0.5
	l0.2-0.7l0.4-1.1l0.5-0.2l0.7,0l1.9,0.8l1.4,0l0.8,0.1l0.6,0.4l0.1,0.2l0.1,0.2l0,0.2l0.1,0.2l0.3,0.8l0.2,0.8l0,0.2l0.1,0.2
	l0.3,0.3l0.5,1l0.7,0.7l0.7,0.6l0.6,0.3l0.8-0.2l0.9-1.2l0.7-0.3h0.4l0.3,0.1l0.3,0.2l0.2,0.4l0.2,0.5l0.2,1.1l0.2,0.4l0.3,0.2
	l0.8,0.3l0.2,0.2l-0.1,0.4l-0.3,0.4l-0.4,0.4l-0.3,0.3l-0.2,0.6v0.3l0.2,0.2l0.7,0.3l0.3,0.2l0.1,0.3l-0.2,0.4l-0.6,0.8l-0.1,1
	l0,1.1l-0.2,1.2l-0.5,0.9l-0.5,0.7l-0.3,0.8l0.3,1.2l0.2,0.4l0.3,0.9l0.2,0.3l0.4,0.3l0.2-0.2l0.2-0.3l0.3-0.2l0.3,0.2l0.4,0.7
	l0.6,0.4l0.2,0.3l0.1,0.4l0.2,0.3l0.3,0.2l0.3,0.1l0.3,0.1l0.3,0.4l0.1,0.5v0.4l0.1,0.4l0.3,0.5l0.3,0.3l0.3,0.2l0.3,0l0.3-0.1
	l0.4-0.3l0.3-0.4l0.1-0.5l0.2-0.5l0.4-0.1l0.4,0l0.4,0.2l0.3,0.3l0.3,0.5l0.2,0.7l0,0.7l-0.2,0.5l-0.5,0.3l-0.1,0.7l0.2,1.6
	l-0.1,0.8l-0.3,0.4l-0.4,0.1l-0.6,0.1l-0.1,0.1v0.2l0.1,0.1l0.6,1.2l0.2,0.2l0.2-0.2l0.2-0.4l0.2-0.3l0.4,0l0.3,0.2l0.2,0.3l0.2,0.4
	l0,0.5l-0.2,0.4l-0.3,0.3l-0.2,0.3l-0.2,1.1l-0.1,0.5l0,0.4l0.2,0.3l0.1,0l0.5-0.1l0.2,0.1l0.3,0.4l0.2,0.2l0.3,0.1l0.7,0.1l0.3,0.1
	l0.3,0.3l0.5,0.8l0.4,0.3l0.7,0.1l0.6-0.1l0.6,0.1l0.6,0.5l0.1,0.2l0.2,0.6l0.1,0.2l0.2,0l0.2-0.1l0.2-0.1l0.2,0.1l0.1,0.2v0.7
	l0,0.3l0.1,0.2l0.2,0.4l0.1,0.2l0,0.6l-0.2,1.9l-0.1,0.3l-0.1,0.3l-0.1,0.3v0.4l0.1,0.3l0.3,0.6l0.1,0.3l-0.2,0.7l-0.5,0.1l-0.4,0
	l0.1,0.7l0.3,0.4l0.9,0.4l0,0.1l0.1,0.3l0.1,0.1l0.1-0.1l0.3-0.2h0.1l0.2,0.1l0.1,0.2l0.3,0.5l-0.2,0.3l0.9,0.8l0.3,0.4l0.2-0.2
	l0.3-0.1l0.3,0.1l0.3,0.2l-0.5,0.9l-0.5,0.5l-0.9,0.2l-2.4-0.2l-0.3,0.1l-0.4,0.2l-0.8,0.7l-0.4,0.1l-0.4-0.5l-0.1-0.2v-0.6l0-0.3
	l-0.1-0.3l-0.4-0.7l-1.1-1.1l-0.3-0.5v0.8l-0.2,0.4l-0.4,0.2h-0.6l-0.1,0.2l0.1,0.7l-0.2,0.5l-0.3,0.3l-0.3,0.1l-0.4,0l-0.3-0.2
	l-0.3-0.4l-0.3-0.7l-0.3-0.3l-0.3-0.1l-0.6-0.1l-0.3-0.1l-0.1-0.2l0-0.2l0-0.2l0.1-0.2l0.1-0.2l0.1-0.2l0-0.2l-0.1-0.2l-0.5-0.1
	l-0.4,0.2l-0.4,0.4l-0.9,1.4h-0.3l-0.4-0.6l-0.5-1.1l-0.3-0.1l-0.4,0.6l-0.1,0.4l0.1,0.6v0.3l-0.2,0.4l-0.1,0.1l-0.2-0.1l-0.3,0.1
	l-0.8,0.8l-0.5,0.3l-0.4-0.3v-0.3l0.1-0.3l0.2-0.3l0.1-0.3l0.1-0.4l0-2.6l-0.1-0.7l-0.3-0.4h-0.4l-1.8,1.1l-1.1,0.4l-1.5,1.1
	l-0.4,0.7l-0.1,0.8l0.2,1.1l0.4,1.4l0,0.5l-0.1,0.6l-0.2,0.4v0.4l0.4,0.5l1.2,1.2l0.1,0.7l-0.2,0.7l-0.5,0.8l-0.7,0.8l-0.2,0.5
	l0.1,0.7l0.4,1.3l-0.1,0.6l-0.5,0.2l-3.6,0.9l-0.4,0.2l-0.2,0.4v0.5l0.3,1.1l0.1,0.6l0,0.6l-0.1,0.4l-0.3,0.3l-0.4,0.2l-0.6,0.1
	l-0.2,0.1v0.2l0.1,0.3l0,0.3l-0.1,0.3l-0.5,0.3l-1.4,0.1l-0.3,0.6l0.2,0.6l-0.1,0.2l-0.6,0.2l-0.4,0.2l-0.2,0.2l-0.5,0.7l-0.2,0.3
	l0.2,0.2l0.3,0.2l0.3,0.3l0.1,0.4l0,0.4l0.1,0.4l0.3,0.4l-0.5,0.3l-0.1,0.1l-0.1,0.3v0.1l0.1,0.1l0.1,1l-0.1,0.3l-0.4,0.2l-1.3-0.1
	l-1.6-0.4l-1.5-0.1l-1.1,0.8l-0.2,0.3l-0.2,0.4l-0.1,0.2l0.3,0.3l0.5-0.1l0.6,0.3l0.4,0.6l-0.1,0.6l0.6,1.6l0.4,0.7l0.5,0.3l0.3,0.1
	l0.7,0.4l1.8,0.5l1.7,0.9l2.8,0.6l0.8-0.1l0.7,0l0.3-0.1l0.2-0.3l-0.6-0.3l-0.2-0.1l-0.1-0.2l-0.1-0.3l0.1-0.2l0.6-0.3l0-0.4l0-0.4
	l0.5-0.1l0.3,0.1l0.5,0.4l0.5,0.1l0.3,0.2l0.3,0.4l0.4,0.2l0.5-0.2l0.1-0.2l0.1-0.6l0.1-0.3l0.2-0.1l0.2-0.1l0.5,0l0.3-0.2l1.1-0.9
	l0.9-0.3l0.4-0.2l0.3-0.3l0.2-0.1l0.5,0l0.1-0.1l0.1-0.2l0.2-0.2l0.3-0.3l0.4-0.2l0.3,0l0.3,0.1h0.4l0.2-0.1l0.2-0.1l0.2-0.2
	l0.1-0.2l0.2-0.1l0.2,0.1l0.2,0.1l0.2,0.1l1.6,0.2l2.9,1.1l1,0.9l0.2,0.1l0.5,0.4l0.3,1l0.1,1.2l-0.3,0.8l0.1,0.2l0,0.2l-0.1,0.2
	l-0.1,0.2l0.3,0.1l0.4-0.1l0.3-0.2l0.4-0.4l0,0l0-0.1l0-0.2l0.1-0.3l0.2-0.7l0-0.2l0.2-0.4l0.1-0.3l0-0.3l-0.1-1.3l-0.1-0.6
	l-0.2-0.6l-0.3-0.3l0.4,0l0.2-0.4l0-0.6l-0.2-0.5l-0.3-0.4l-0.2,0.2l-0.1,0.5l-0.1,0.4l-0.1-0.5l-0.1-0.1l-0.2,0l-0.2-0.1v0.1
	l-0.1,0.1l-0.1,0l-0.1-0.1v-0.7l-0.3,0.1l-0.1,0.3l0,0.4l-0.1,0.3l-0.2,0l-0.2-0.2l-0.2-0.2l-0.3-0.7v-0.3l0.3-0.1l0.1-0.1l0.1-0.3
	l0.1-0.3l0.2-0.1l0.3-0.2l0.7-1.1l0.3-0.3l-0.5,0.6l-0.3,0.2l-0.4,0.1l-0.4,0l-0.3-0.1l-0.5-0.3l0.2-1.3l-0.1-1.4l0.1-1.2l0.7-0.6
	l-0.2-0.3l-0.1-0.2l-0.1-0.2l0-0.4l0.1-0.4l0.4-0.5l0.1-0.2l-0.1-0.1l-0.3-0.4l-0.1-0.2l0.1-0.2l0.1-0.2l0.1,0l0.1,0.3l0.1,0.1
	l0.4,0.4l0.1,0l0.1,0.1l0.1,0.2l0.2,0.3l0,0.2l-0.1,0.2l-0.1,0.5l0.1,1.4l-0.1,0.2l0.5,0.3l0.4,0.6l0.2,0.8l0,0.8l0.3-0.2l0.6-0.2
	l0.3-0.2l-0.1-0.2V399l0.1-0.1l0.1-0.2l0.4,0.2l0.4-0.2l0.3-0.3l0.4-0.2l0.1-0.1l-0.2-0.2l-0.3-0.3l-0.5-0.2l-0.3-0.2l-0.2-0.4
	l0.1-0.6l0.4-0.3l0.6-0.1h0.5l0.1-0.1l0.1-0.1l0.1-0.1l0.1-0.1l0.2,0.1l0,0.1l0,0.1l0.1,0.1l0.4,0.3l0.2,0.2l0.1,0.3l0.1-0.8
	l-0.2-0.2l-0.2-0.3l-0.1-0.4l0-0.5l0.2-0.4l0.2-0.1l0.1,0.2l-0.1,0.3v0.2l0.2,0.3l0.2,0.3l0.1-0.7l0.1-0.7l0.2-0.6l0.5-0.2l0.5,0.2
	l1,0.8l0.2-0.1l0.1-0.1l0.1,0.1l0.1,0.1l0.1,0.1l0.2,0l0-0.1v-0.2l0.1-0.2l0-0.2l0.1-0.8l0.1-0.3l0.2-0.3l0.2-0.2l0.2,0.1l0.1,1.7
	l-0.1,0.4l1.4-1.1l1.2-1.2l2.3-3.1l2.6-2.5l0.2-0.4l0.4-1.2l0.2-0.2l0.3-0.2l0.3-0.4l0.4-0.9l1.5-2.1l0.6-1.2l0.1-0.3v-0.3l-0.2-0.2
	l-0.5-0.3l-0.1-0.2l0.3-0.4l1.1,0.1l0.3-0.3l0.9-1.2l0.1-0.1l0.2-0.9l0.1-0.2l0.1-0.1l0.1-0.1l0.1-0.1l-0.1-0.2l-0.2-0.2h-0.1
	l-0.2-0.6l-0.3-0.8l-0.1-0.4l0.1-0.3l0.6-0.9l0.3-0.2h0.2l0.9,0.2l0.3-0.1l1.2-0.9l0.3-0.1l0.2,0.1l0.2,0l0.5-0.4l0.2-0.1l0.5-0.1
	l0.9-0.3l1.1-0.2l1.1-0.3h0.6l1.4,0.4l0.4,0.3l0.2-0.2l0.3,0.2l0.6,0.1l0.3,0.2l0.3-0.2l0.9-0.5l0.4-0.1l0.3-0.3l0.7-1.1l0.3-0.3
	l0-0.1l0.4-0.6l0.2-0.4l-0.1-0.2l-0.7-0.5l-0.2-0.1l-0.1-0.2l-0.1-0.4l0-0.2l-0.2-0.8l0.3,0.1l0.2,0.4l0.3,0.8l0.3,0.2l0.3,0.2
	l0.2-0.1l0.1-0.1l0-0.1l0.4-0.6l0.1-0.2l0.2-0.1l0.4-0.2l0.2-0.1l0.2-0.4l0.1-0.4l0.2-0.2l0.3,0.4l-1,1.4l-0.3,0.2v0.3l-0.3,0.7
	l-1.1,1.9l-0.2,0.5l0.1,0.4l0.2,0.1l0.2,0l0.4,0l0.2,0.1l0.3,0.3l0.2,0.1l0.5-0.1l0.2-0.4l0.2-0.4l0.4-0.2l1.2-0.1l2,0.8l0.9,0.1
	l0.9-0.2l0.2-0.1l0.5-0.3l0.2-0.2l0.2-0.4l0-0.2l-0.1-0.2c0,0-0.1-0.5-0.1-0.5"/>
<defs>
	<filter id="Adobe_OpacityMaskFilter" filterUnits="userSpaceOnUse" x="265.2" y="393.8" width="8.4" height="6.8">
		
			<feColorMatrix  type="matrix" values="-1 0 0 0 1  0 -1 0 0 1  0 0 -1 0 1  0 0 0 1 0" color-interpolation-filters="sRGB" result="source"/>
		<feFlood  style="flood-color:white;flood-opacity:1" result="back"/>
		<feBlend  in="source" in2="back" mode="normal"/>
	</filter>
</defs>
<mask maskUnits="userSpaceOnUse" x="265.2" y="393.8" width="8.4" height="6.8" id="SVGID_1_">
	<g class="st3">
		<rect x="340.7" y="280.7" class="st1" width="51" height="193"/>
		<rect x="281.7" y="243.3" class="st1" width="53.7" height="213"/>
		<rect x="219.7" y="243.3" class="st1" width="54" height="207.7"/>
	</g>
</mask>
<polygon class="st4" points="269.1,397.6 268.8,397.9 268.2,398.6 267.8,398.8 267.5,398.9 267.2,399 267,399.1 266.9,399.4 
	266.7,399.7 266.3,400 265.2,400.6 266.8,399.9 268.9,398.4 273.7,393.8 272.3,394.6 "/>
<defs>
	<filter id="Adobe_OpacityMaskFilter_1_" filterUnits="userSpaceOnUse" x="107.9" y="184.5" width="373.1" height="251.9">
		
			<feColorMatrix  type="matrix" values="-1 0 0 0 1  0 -1 0 0 1  0 0 -1 0 1  0 0 0 1 0" color-interpolation-filters="sRGB" result="source"/>
		<feFlood  style="flood-color:white;flood-opacity:1" result="back"/>
		<feBlend  in="source" in2="back" mode="normal"/>
	</filter>
</defs>
<mask maskUnits="userSpaceOnUse" x="107.9" y="184.5" width="373.1" height="251.9" id="SVGID_2_">
	<g class="st5">
		<rect x="340.7" y="280.7" class="st1" width="51" height="193"/>
		<rect x="281.7" y="243.3" class="st1" width="53.7" height="213"/>
		<rect x="219.7" y="243.3" class="st1" width="54" height="207.7"/>
	</g>
</mask>
<path class="st6" d="M312,368.2l0.1,0.3l0.3,0.5l0.3,0.3l0.3,0.2l1.3,0.3l0.3,0.2l0.3,1.1l0.3,0.3l0.5-0.6l0.2,0l0.4-0.2l0.2,0
	l0.2-0.1l0.3-0.4l0.2-0.1l0.1,0.1l0.3,0.5l1.4,0.8l1.5-0.2l2.8-1.6l0.5,0.1l0.6-0.3l0.5-0.4l0.5-0.2l-0.2,0.5l-0.3,0.3l-0.3,0.2
	l-0.3,0.3l-0.4,0.2l-1,0.1l-0.4,0.3l-1.5,1.2l-0.6,0.8l0.4,0.6l-0.6,0.6l-0.8,0.3l-0.9,0.1l-0.9-0.2l-1.1-0.7l-2.3-0.5h-0.4
	l-1.2,0.2l-1.8-0.4h-1.8l-0.3-0.1l-1.2-0.7l-0.7-0.2l-3.6,0.3l-0.3-0.2l-0.5-0.6l-0.7-0.5l0.3,0.7l2.4,2.5l0.3,0.1l0.2,0.2l0.5,1.3
	l0-0.9l0-0.3l0.1-0.2l0.1-0.2l0.3-0.3l0.3-0.2l0.5,0l0.5,0.1l2.9,1.2l0.9,0.2l0.8-0.1l0.3,0.1l0.9,1.3l0.2,0.4l-0.2,0.1h-0.3
	l-0.3,0.1l-1.1,1l-0.2,0.1l-1.6,0.3l-1.1-0.3l-0.4,0.1l-0.3,0.2l-0.4,0.3l-0.3,0.4l0.1,0.5l0.3,0.3l0.3,0.2l0.4,0.1l1.3,0.1l0.2-0.1
	l-0.1-0.3l-0.1-0.4l0.1-0.4l1.7,1.3l1,0.6l0.6-0.3l0.6,0.5l0.8,1.1l0.3,0.2l0.3,0.1l0.9,0.3l0.5,0.1l0.5-0.1l0.6-0.3l-0.1,0.3
	l-0.1,0.2l-0.4,0.4l0.1,0.2l0.1,0.4l0.1,0.2l0,0.1l0.1,0.4l0,0.1l0.1,0.1l0.3,0l0.5,0.3l4.2,1.2l0.8-0.1l0.2-0.1l0.3-0.4l0.2-0.2
	l0.2-0.1l2.6-0.5l0.8-0.4l0.3-0.1l0.5,0.1l1.1,0.4l0.2,0l0.5,0l0.2,0l0.2,0.1l0.2,0h0.3l2.2-0.4l0.3-0.4l-0.2-0.9l1.2,0.6l0.4,0.3
	l0.2,0.1h0.2l0.3-0.1l0.2,0l0.7-0.3l0.4-0.8l0.3-0.8l0.5-0.5l-0.2,2.1l-0.1,0.4l-0.2,0.4l1.6-0.2l0.5,0.2l0.1,0.3l-0.2,0.4l-0.3,0.3
	l0.1,0h0.1l0.1,0l0.1,0.2l0.4-0.6l0.5,0.1l0.5,0.5l0.6,0.9l0.2,0.2h1.3l0.4,0.2h0.2l-0.4-0.6l0.2-0.4l0.5-0.2l0.5,0v-0.2l-0.5-0.4
	l0-0.4l0.4-0.4l0.4-0.4l0.5-0.2l0.3,0.3l0.6,1.2l0.1,0.5l-0.2,0.3l-0.2,0.3l0,0.3l0.3,1l0,0.2l-0.2,0.3l-0.1,0.3l0,0.2l0.2,0.1
	l-0.1,0.1l-0.2,0.3l-0.4,0.5l0.3,0.2l0.2-0.1l0.2-0.2l0.2-0.1l0.5-0.1l1.2,0.3l0.4,0.2l0.4,0.3l-0.4,0.2l-0.7,0.2l-0.3,0.2l-0.3-0.1
	l-0.1,0.6l0.1,0.7l0,0.3l-0.4,0.1l-0.2,0l-0.1-0.2l-0.1-0.2l-0.2-0.2l-0.2-0.1l-0.2-0.1l-0.2,0l-0.2,0.1l-0.4,0.3l-0.5,0.6l-0.5,0.2
	l-0.2,0l-0.3-0.1l-0.4-0.3l-0.2-0.1l-0.3,0.1l-0.9,0.6l-0.3,0.1l-0.6,0.7l-0.1,0.2l-0.8,0.3l-1.5,0.9l-0.7,0.1l-0.7-0.4l-0.3-0.4
	l-0.2-0.1l-0.2,0.2l0,0.3l0.2,0.2l0.2,0.1l0.1,0.1l-0.1,0.4l-0.3,0.2l-4.7,2.2l-1.4,1l-0.6,0.7l-0.2,0.2l-0.1,0.2l-0.1,0.3l0,0.2
	l0.1,0.3l0,0.2l-0.3,0.1l-0.2,0l-0.4-0.2l-0.2,0l-0.3,0.1l-0.2,0.2l-0.1,0.2l-0.2,0.2l-0.3,0.2l-0.3,0.2l-0.4,0.1l-0.5,0.1l-0.4,0.1
	l-2.4,1.9l-0.6,0.7l-0.3,0.8l0.1,0.4l0.6,1.6l0.5,0.1l0.7,0.4l0.4,0.2h1.5l0.3-0.2l0.7-0.8l0.3-0.2l0.4-0.1l3.1,0.3l0.9,0.3l0.8,0.5
	l1.3,1.2l0.2,0.1l0.4,0.2l0.2,0.1l0.2,0.4l0.2,0.3l0.5,0.3l0.7,0.9l0.3,0.3l0.9,0.3l0.4,0.2l0.2,0.4l0.2,0.3l0.5-0.1l0.7-0.4
	l0.8-0.3l0.9-0.1l0.4,0.2l1.1,1.1l1.4,0.9l0.5,0.7l0.3,1.2l0.1,0.8l0.1,0.3l0.4,0.7l0.1,0.2l0.1,0.5l0.2,1.2v0.7l-0.1,0.6l-0.1,0.5
	l-0.2,0.4l-0.8,0.3l-0.3,0.4l-0.2,0.5l-0.1,0.6l-0.1,0.2l-0.1,0.1l-0.2,0.1l0.2,0.4l0.1,0.4l0.1,0.8l0.2,0.6l0,0.3l-0.1,0.5
	l-0.2,0.3l-0.3,0.3l-0.2,0.4l0,0.4l0.2,0.2l0.7,0.1l0.3,0.1l-0.4,0.2l-1.1,0l-0.3,0.1l-0.2,0.1l-0.2,0l-0.4,0l-0.2,0.1l-0.5,0.3
	l-0.2,0.1l-0.6,0.1l-0.1-0.1l0,0.3l0.2,0.3l2.2,1.6l0.3,0.3l0.4,0.3l0.4,0l0.4-0.1l0.4,0l0.2,0.2l0.6,0.8l0.1,0.3l0.1,0.6l0.3,0.3
	l1.6,0.7l0.4,0.1l1.4,0l0.2,0l0.4-0.1h0.3l1.3,0.5l0.5,0.1l0.4-0.1l2.2-1.1l0.5-0.1l0.3-0.1l0.7-0.5l0.2-0.2l0.3-0.5l0.2-0.4
	l0.3-0.3l1-0.2l0.3-0.2l0.4-0.7l0.1-0.1v-0.2l0.1-0.1l0-0.1l0.2,0h0.3l0.5,0.1l0.2-0.1l0.2-0.4l0.8-2.1l0.7-1.2l0.2-0.3l0.1-0.2
	l0.8-1.2h0.1l0,0v0.1l0,0.1l0.5-0.6l0.7-0.3l1.7-0.4l0.8-0.3l1.5-1l0.8-0.3l1.4,0.3l0.3-0.2l0.3-0.2l0.7,0.2l0.4-0.1l0.2-0.1
	l0.1-0.2l0.2-0.2l0.2-0.1l0.2,0l0.7,0l0.4,0.2l0.3,0.4l0.2,0.4l0.2,0.3l0.9,0.1l0.6-0.9l0.4-1.3l0.5-0.9l0.4-0.2l0.9-0.2l0.4-0.3
	l0.5-1l0.4-0.3l0.5,0.3l0.1-0.1l0.2-0.2l0.1-0.1l1,0.8l-0.1-0.9l0-0.4l0.2-0.3l0.3-0.1l0.7,0.1l0.3-0.1v-0.2l-0.6-0.3l-0.1-0.1
	l-0.1-0.3l0.1-0.2l0.1-0.2l0.1-0.3l0.2-0.2l1.1-0.9l0.8-0.4l0.9-0.2h0.9l0.9,0.2l1.5,0.6l1.4,0.9l0.2,0.2l0.6,0.8l0.1,0.3l0.2,0.7
	l0.4,0.2l1.4-0.3l1.6,0.1l0.3-0.3l0.4-0.7l0.5-0.5l0.7,0.3v-0.2l1.2,0.7l1.8,0.4l0.4-0.1l0.1-0.2l0.1-0.5l0.1-0.2l0.2-0.1l0.2-0.1
	l1.8-0.1l1.5-0.6l0.3-0.3l0.1-0.4l-0.3-0.4l-0.6-0.6l-0.1-0.6V413l0.2-1.7l0.2-0.6l0.2-0.6l0.3-0.4l0.2-0.1l0.5,0l0.2-0.1l0.1-0.3
	l-0.1-0.1l-0.1-0.1l-0.1-0.2l0.1-0.6l0.3-0.3l0.4-0.1l0.5,0.1l0.6,0.3l0.2,0.1h0.3l0.7-0.2l0.2-0.3L408,407l-0.4-1l-0.3-0.4
	l-0.3-0.2l-0.3,0.1l-0.4,0.4L406,406l-0.3-0.3l-0.5-0.7l-0.4-0.1l-1.2,0.3l-0.4-0.1l-0.6-0.4l-0.4-0.1l-0.2,0.1l-0.2,0.2l-0.2,0.2
	h-0.3l0.2-0.5l-0.2-0.4l-0.3-0.1l-0.3,0.3l-0.3,0.3l-2.4,0l-0.4,0.2l-0.4,0.4l-0.6,0.4l-0.1,0.1l-0.3,0.9l-0.6,0.8l-0.8,0.2
	l-0.8-0.3l-1.6-0.9L392,406l-0.2-0.4l0.1-0.5l0.2-0.5l-0.1-0.3l-0.5-0.1l-0.3,0.2l-0.3,0.4l-0.2,0.6l-0.1,0.6l-0.1,0.1l-0.3,0.4
	l-0.1,0.1l-0.3,0.1l-0.1,0.2l0,0.3l-0.1,0.3l-0.6,0.6l-0.4,0.3l-3.7,1l-0.8-0.1l-3.1-2.2l-6-8.9l-1.8-3.6l-1.1-3l-0.2-0.4l-0.2-0.3
	l-0.2-0.4L371,387l-0.2-0.5l-0.1-0.4l-0.1-1.9l-0.1-0.5l0-0.2l0-0.3l0.1-0.3l0.4-0.5l0.1-0.1l0.9-0.4l0.1-0.3l0-0.3l0.2-0.3l0.2-0.1
	l0.1,0.1l0,0.2l0.1,0.2l0.3,0.1h0.2l2-0.5l0.9-0.6l0.7-0.8l1.2-1.9l0.7-0.7l0.2-0.3l0.1-0.5l-0.1-0.3l-0.1-0.2l-0.1-0.4l-0.2-0.4
	l-0.4-0.6l-0.2-0.6l0.4-0.6l0.1,0.6l0.2,0.6l0.3,0.4l0.3,0.2l0.3,0.3l0.2,0.1l0.2,0.1l0.3,0l0.2,0.1l-0.4,1.1l-0.1,0.8l0.2,0.7
	l0.5,0.4l0.4,0l0.4-0.3l0.4-0.4l-0.1,0.8l-0.3,0.5l-0.8,0.8l-0.6,1.1l-0.2,0.5l-0.5,0.6l-0.6,1.2l-1.1,0.6l-2.2,0.7l0.1,0.3l0.1,0.1
	l-0.7,0.5l-0.7,0.8L374,386l0.4,0.1l0.8-0.4l0.5-0.4l0.7-0.2l0.5-0.4l0.8-0.3l0.5-0.5l0.5-0.7l1.1-2.3l0.4-0.5l2-3.3l0.3-0.3
	l0.7-0.5l0.3-0.3l0.6-0.9l0.3-0.4l0.4-0.3l2.4-1.3l0.7-0.6l1.7-2l0.6-0.5l1.1-0.7l1.5-0.9l0.5,0l2.8-0.6l1.5,0.2l0.8-0.2h0.4
	l0.4,0.2l0.1,0.1l0.1,0.1l0.2,0.4l0.1,0.1l0.2,0.2v0.2l0,0.2l-0.1,0.1l0.1,0.3l0-0.1l0-0.2l0.2-0.1l0.2-0.1l0.1,0.1v0.4h0.2l0.1-0.9
	l0.4-0.7l1.4-1.5l0.6-0.5l0.7-0.3l1-0.2l0.9-0.5h1.4l0.2-0.1l0.2-0.2l0.2-0.2l0.3-0.1l0.6,0.2l0.4,0l0.3-0.2l0.3,0.2l0.7,0.2
	l0.3,0.2l0.8,0.9l0.2,0.1v0.6l-0.3,1.1l-0.4,0.8l-0.4-0.2h-0.2v0.2l0.5,0.2l0.5-0.5l0.4-0.8l0.2-0.8l0.2-0.7l0.4-0.7l0.3-0.7
	l-0.2-0.7l0.7-0.1l1.1-1.1l0.7-0.3l0.2-0.1l0.7-0.6l0.2-0.1l0.4-0.1l2.4-7.9l1-0.8l0.4-0.1l0.7,0.1l0.7,0.4l0.5,0.6l-0.1,0.8
	l0.5-0.2l0.3-0.5l0.5-1.1l2.2-3.1l1.3-1.4l0.7-0.3l2.7,0.5l0.9,0l2.2-0.8l1.8,0.3l0.2-0.1l0.5,0.1l0.8,0.3l0.2-0.1l0.5-0.3l0.1-0.1
	l0.1-0.1l0.7,0.6l0.5,0.2v0.5l-0.5,1l0.7-0.3l1.1-1.6l0.4-0.4l-0.3-0.8l-0.1-1l0.1-0.9l0.4-0.7l0.4-0.3l0.5-0.2l0.4-0.3l0.3-0.4
	l0.1-0.6l-0.2-0.3l-0.3-0.2l-0.4,0l-0.8,0.1l-0.4-0.1l-0.3-0.3l0.1-0.5l0.3-0.6l0.6-0.9l0.5-0.9l0.1-0.9l-0.1-2.2l0.3-1.1l0.4-1.1
	l0.5-0.9l0.7-0.5l4.3-0.6l0.5-0.2l0.4-0.3l0.8-0.9l0.4-0.3l0.3-0.1l0.7,0.3l0.4-0.1l0.2-0.5l0.2-1.3l0.4-1.4l0.5-1.2l0.7-0.9l1-0.4
	l3.4,0.1l1.1,0.8l0.4,0.1l0.4,0l0.8-0.2l3.1-0.1l0.4,0.1l0.7,0.5l0.4,0.2l0.5,0l0.9-0.3l0.5,0.2l0.6,0.1l1.3-0.3l0.6,0.1l2.1,0.6
	l0.7-0.1l0.5-0.5l0.3-0.8l0.2-0.9l0-0.2l-0.1-0.4v-0.2l0.1-0.3l0.2-0.5l0.1-0.2l0.1-0.5l0-0.3l-0.3-0.7l-0.2-0.3l-0.2-0.2l-0.1-0.2
	l0.2-0.3l0.2-0.2l1.1-0.2l0.1,0l0.1-0.1l0-0.3l-0.3-1l0.1-0.7l0.3-0.6l1-2l0.4-0.5l1-0.8l0.4-0.4l0.3-0.6l0.1-0.6l-0.3-0.5L477,311
	l-1.1,0.4l-0.4,0.1l-1.4-0.9l1.4-1.2l0.4-0.5l0.5-0.5l-0.2-0.3l-0.2-0.4l-0.2-0.8l-0.6-1.4l-0.2-0.2l-0.2-0.3l-0.1-0.5l0.1,0l0.2,0
	l0.2-0.1l0.1-0.3l0-0.1l-0.1-0.1l-0.1-0.2l0-0.2l-0.2-0.8l-0.4-0.6l-0.5-0.3l-2.5-0.3l-0.4,0.2l-0.8,0.1l0.2-0.8l1.3-4.3l0.2-0.3
	l0.5-0.2l0.2-0.3l0.1-0.4l0.2-0.3l0.4-0.5l0.4-0.2l0.5,0l2.3,0.9l0.8-0.1l0.9-0.7l0.4-0.5l0.3-0.6l-0.1-0.6l-0.4-0.5l-0.5-0.1
	l-0.4,0.4l-0.4,0.5l-0.4,0.2l-0.3-0.1l-0.4-0.5l-0.2-0.2l-0.2-0.1l-0.7,0.1l-1.6-0.4l-0.5-0.2l-0.2-0.3l-0.2-0.4l-0.3-0.6l-0.4-0.4
	l-0.4-0.3l-0.3-0.4l0.2-1.6l0.4-0.3l1,0.1l1.7-0.6h0.6l0.6,0.1l0.3,0l0.2-0.2l0.1-0.3l-0.1-1l0.1-0.4l0.4-0.8l0.6-0.6l1.2-0.8
	l0.4-0.4l0.7-1.1l0.4-0.3l0.5-0.3l0.2-0.3l0-1.2l0.3-1.1l0.1-0.6l-0.2-0.5l-1-1.2l-0.8-1.3l-0.4-0.9l-0.1-1l0.4-1.1l0.4-0.3l0.8-0.5
	l0.3-0.4l0.1-0.7l-0.3-0.3l-2-0.6h-0.4l-0.5,0.2l-1.2,1.3l-0.5,0.3l-0.6,0.2l-0.6,0.1l-0.6,0l-0.4-0.2l-1.1-1.1l-0.8-0.4l-0.7-0.2
	l-0.6-0.4l-0.5-1.1l-0.3-1.4l-0.2-0.7l-0.3-0.3l-1.2-0.1l-0.4-0.2l-0.8-0.5l-0.8,0.2l-0.8,0.4l-0.8,0.2L463,265l-0.6-0.4l-0.5-0.7
	l-1.1-3l-0.5-0.5l-0.8,0.3l-0.4,0.4l-0.7,1l-0.4,0.3l-0.3,0.1l-2,0.1l-0.5-0.6l-0.5-0.8l-0.7-0.7l-2.2-0.6l-1.2-0.9l-0.1-0.1
	l-0.1-0.3l-0.1-0.5l-0.2-0.6v-0.1l-0.1,0.1l-0.5,0.2l-0.2,0.1l-0.2,0.1l-1-0.2l-1.5,0.3l-0.8-0.3l-0.5-0.3l-0.4-0.2l-0.9-0.1
	l-0.4-0.2l-0.2-0.4l-0.6-1.9l-0.3-0.4l-0.4-0.1l-0.6,0.1l-1.3-0.1l-0.3,0.1l-0.2,1l0.2,1.5l-0.1,1.4l-1,0.7l-0.2-0.1l-0.4-0.3
	l-0.2-0.1l-0.3,0.1l-1.4,0.9l-0.1-0.2v-0.5l-0.3,6.4l0-0.1l-0.7-1.2l-0.6-0.8l-0.7-0.6l-0.8-0.5l-1.6-0.8l-0.7-0.5l-2-3.1l-0.7-0.7
	l-0.2-0.2l0-0.3l0.1-0.3l0.2-0.8l-0.1-1.4l-0.7-0.7l-1.8-0.9l-0.3-0.9l-0.3-1.1l-0.3-0.8l-0.4-0.2l-2.1,0.3l-0.6,0.3l-1.2,1.3
	l-0.6,0.5l-3-6.1l-1.5-0.2l-1.4,0.1l-1.4,0.5l-3.4,2.1l-0.3,0.3l-0.2,0.3l-0.3,0.7l-0.2,0.3l-0.4,0.3l-0.5,0.1l-0.5-0.1l-0.4-0.2
	l-0.3-0.3L406,249l0.1-0.3l0-0.7l0.1-0.1l-0.1-0.1l-0.3-0.2l-0.2-0.1l-0.6-0.2l-0.6-0.4l-0.5-0.1l-0.4-0.3l-0.2-0.1H403l-0.2,0.1
	l-0.4,0.4l-0.5,0.3l-0.5,0.2l-0.5,0l-0.5-0.2l-2.1-3.3l-0.6-0.3l-0.2-0.6l-0.6-0.3l-3.6,2.7l-2,0.2l-0.4,0.1l-0.3,0.2l-0.4,0.6
	l-0.2,0.2l-0.2,0.1h-0.4l-0.2,0.1l-0.3,0.4l-0.2,0.4l-0.3,0.3l-0.5,0.2l-0.4,0l-0.4-0.1l-0.4-0.2l-0.4-0.3l-0.4-0.5l-0.1-0.5l0-0.6
	l-0.2-0.8l-0.3-0.6l-0.4-0.3l-0.4-0.2l-0.4-0.1l-0.7-0.3l-0.4,3.2l-1-4l0-0.4l0.3-0.4l1.6-0.7l-0.5-0.6l0-0.7l0.1-0.8l-0.2-0.9
	l-0.2-0.3l-0.2-0.2l-0.5-0.3l-0.3-0.3l0-0.3l0.1-0.4l-0.1-0.5l-0.2-0.4l-0.4-0.6l-0.2-0.4l0-0.5l0.1-0.4l0-0.4l-0.3-0.4l-0.3-0.2
	l-0.5-0.1l-0.2-0.2l-0.1-0.3v-0.9l-0.1-0.4l1.1-0.2l0.3-0.3l0.2-0.6l-0.2-0.4l-0.4-0.2l-0.4-0.1l-0.7-0.1l-1.4,0.3l-0.7-0.1
	l-0.6-0.6l-0.4-1.1l-0.5-3.1l-0.2-0.5l-0.3-0.3l-0.4-0.2l-0.4,0.1l-0.4,0.2l-0.4,0.1l-0.4-0.3l-0.4-0.2l-0.3,0l-1,0.6l-1.7,0.7
	l-1.4,0.3l-1.5-0.1l-0.4-0.1l-0.3-0.3l-0.2-0.5l-0.1-0.5l-0.1-0.4l-0.3-0.3l-0.6-0.1l-1.3,0.2l-0.7-0.3l-1.5-0.5l-0.8-0.1l-0.7,0.2
	l-0.8,0.7l-0.4,0.2L359,223l-1.5-0.7l1.2-0.8l0.8-0.9l0.5-1.1l-0.2-1.1l-0.4,0.2h-0.3l-0.4-0.1l-0.3-0.2l-0.3-0.2l-0.4-0.4l-0.2-0.3
	l-0.1-0.3l0.1-0.2l0.5-0.1l0.1-0.3l0.1-0.3l-0.1-0.3l-0.1-0.3l0-0.3l0.1-0.3l0.2-0.6l0.1-0.3l-0.1-0.7l-0.2-0.6l-0.3-0.5l-0.9-1
	l-0.2-0.3l-0.1-0.3l-0.1-0.7l-0.1-0.2l-0.3-0.2l-0.7-0.2l-0.2-0.3l0.2-0.8l0.8-0.5l3.5-0.8l1.2,0l0.4-0.1l0.8-0.9l0-1.4l-0.6-1.3
	l-0.8-0.8l-0.4-0.3l-0.7-0.8l-0.4-0.3h-0.2l-0.4,0.2l-0.2-0.1V201l-0.1-0.5l-0.1-0.2l-0.1-0.1l-0.3-0.2l-0.1-0.1l-0.8-1l-0.4-0.3h-1
	v-0.3l0.2-0.5l-0.1-0.6l-0.4-0.7l-0.3-0.6l-0.1-0.7l-0.1-1.1l-0.1-0.6v-0.2l0.4-0.8v-0.4l-0.1-0.3l-0.1-0.3l-0.2-0.4l-0.3-0.6
	l-0.3-0.4l-1.3-0.9l-0.3-0.4l-0.5-1.2l-0.4-0.6l-0.9-0.6l-0.4-0.4l-0.3-0.6l-0.2-0.5l-0.2-0.3l-0.5-0.2l-0.9,0l-0.9,0.2l-1.8,0.9
	l-1.4,1.4l-0.4,0.1l-0.4-0.6l0.1-1.3l-0.4-0.6l-0.3,0.2l-0.3,0.3l-0.3,0.2l-0.4,0l-0.3-0.2l-0.6-0.4l-0.4-0.1h-1.3l-2-0.4l-0.3,0.1
	l-0.3,0.2l-0.5,0.7l-0.3,0.3l-0.4,0.2l-0.2,0.1l-0.2,0.5l-0.2,0.2l-0.2,0.1l-0.3-0.2l-0.2,0l-0.4,0.2l-2.1,1.9l-0.4,0.2l-0.4-0.1
	l-0.6-0.5l-0.3-0.2h-0.6l-1.2,0.3h-0.6l-4.1-2.2l-1,0.3l-1.8-0.7l-0.8,0.2l-0.3,1.2l0.1,0.4l0.4,0.7l0.1,0.3l-0.1,0.4l-0.2,0.2
	l-0.3,0.2l-0.2,0.2l-0.2,0.6l-0.3,2.1l-0.6,1.3l-0.9,0.7l-2.9,1.4l-0.4,0l-1.3-0.3l-0.8,0.1l-1.1,0.6l-0.3,0.1l-0.4-0.2l-0.1-0.5
	v-0.6l-0.1-0.6l-0.5-0.5l-0.7-0.1l-1.3,0.1l-2.4,0.1l-3.6-0.7h-1.9l-1.6,0.7l-0.4,0.5l-0.3,0.7l-0.3,0.6l-0.5,0.2l-0.5-0.2l-1-0.8
	l-0.5-0.3l-0.8-0.1l-2.8,0.2l-0.5,0.2l-0.3,0.4l0.1,0.6l-0.1,0.2l-0.1,0.2l-0.1,0.2l-0.1,0.2l0.6,0.1l0.2,0.5l-0.2,0.4l-0.5,0
	l-0.1-0.2l-0.1-0.1l-0.1,0.1l-0.2,0.1l-0.2,0.2l-0.1,0.2v0.3l-0.2,0.3l-0.2,0.3l-0.3,0.2l-0.3,0.2l-0.6,0.2v0.1l0.1,0.2l0.1,0.1v0.2
	l-0.3,0.4l-0.2,0.2l-0.2,0.1l-0.6-0.1l-0.2,0.1l-0.1,0.2v0.3l-0.1,0.3l-0.4,0.2l-0.1,0.2l-0.1,0.2l-0.1,0.1l-0.1,0.1l-0.4,0.6
	l-0.1,0.2l-0.1,0.1v0.1l0.2,0.3l0,0.5l-0.4,0.4l-0.5,0.3l-0.3,0.3l0.4,0.2l0.2,0v0.3l-0.2,0.3l-0.1,0.4l0,0.4l-0.1,0.3l-0.2,0.1
	l-0.7,0l-0.3,0.1l0.1,0.4l-0.2,0.7l0.1,0.5l-0.2,0.1l-0.2,0.3l-0.1,0.1l0.1,0.1l0.1,0.3l-0.3,0.1l-0.6,0.6v0.2l0.4,0.3l0.2,0.1v0.2
	l-0.2,0.1l-0.1,0.1l-0.1,0.1l-0.1,0.1v0.2l0.2,0.3l0.7,0.2l0.3,0.2l-0.2,0.4l-0.1,0.2l-0.2,0.2l0.3,0.2l0.2,0.2l0.1,0.3l-0.1,0.3
	l0.1,0.4l0.2,0.3l0.2,0.1l0.2,0.1v0.2l-0.3-0.1l-0.2,0.1l-0.2,0.2l-0.1,0.4l0.1,0.4l0.2,0.1h0.2l0.3,0.2l0.1,0.2l0.2,0.9l0.1,0.2
	l0.2,0.2l0,0.2l-0.3,0.1l0.1,0.9l-0.6,0.6l-0.6,0.5l-0.1,0.5l-0.4,0.7l-0.1,0.1l0,0.8l-0.1,0.2l-0.2,0.1l-0.2-0.3l-0.2-0.3l-0.3-0.2
	l-0.3-0.1l-0.3,0l-0.3-0.1l-0.5-0.7l-0.3-0.3l-0.3-0.1h-0.6l-0.3-0.1l-0.3-0.3l-0.6-0.8l-0.2-0.3l0.1,0l0.2-0.7l0-0.3v-0.3l0-0.3
	l-0.1-0.2l-0.2-0.2l-0.3-0.3l-1-0.5l-0.3-0.3l-0.8-1.1l-0.6-0.4l-0.6-0.2l-2.9,0.1l-0.5,0.2l-1.2,0.7h-0.3l-0.3-0.2l-0.2,0l-0.3,0.2
	l-0.3,0.6l-0.2,0.2l-0.4,0.1l-1.9-0.3l-0.3-0.4l-0.2-0.5l-0.3-0.6l-0.4-0.3l-0.4-0.1l-0.5,0.1l-0.4,0.2l-0.4,0.4l-0.2,0.4l-0.3,0.4
	l-0.5,0.2l-0.5,0.1l-0.3,0.2l-0.2,0.4l-0.3,0.8l-0.3,0.6h-0.4l-0.9-0.4l-0.5,0.2l-0.8,0.7l-0.4,0.2l-0.5-0.3l-0.3-0.6l-0.2-0.7
	l-0.2-0.7l-0.4-0.5l-0.3-0.3l-0.1-0.4l0.2-0.9l-0.1-0.9l-0.2-0.6l-0.7-1.1l-0.4-1.2l-0.3-0.4l-0.5-0.3l-0.8-0.2l-0.4,0l-0.4,0.2
	l-0.4,0.4l-0.5,1.1l-0.4,0.4l-0.5,0.2h-1.3l-0.6,0.1l-0.6,0.4l-0.7,0.5l-0.6,0.7l-0.4,0.9L245,215l0.1,1.3l-0.1,0.5l-0.4,0.4
	l-0.2-0.3l-0.2-0.6l-0.2-0.4l-0.3,0l-0.3,0.2l-0.3,0.1l-0.3-0.2l-0.2-0.3l-0.1-0.5l-0.3-1.9l-0.1-0.7l-0.2-0.4l-0.5-0.2l-1.8-0.4
	H239l-0.5,0.2l-1,0.7l-0.5,0.5l-0.3,0.2l-0.3-0.1l-0.1-0.3l-0.2-0.9l-0.1-0.3l-0.3-0.3l-0.6-0.4l-0.3-0.3l-0.2-0.4l0-0.3v-0.3
	l-0.1-0.3l-0.3-0.3l-0.4,0l-0.5,0.2l-0.4,0.4l-0.4,0.6l-0.7,1.3l-0.5,0.4l-0.4,0.2h-2l-0.4-0.1l-0.4-0.2l-1.2-1.4l-0.4-0.2l-0.5,0.1
	l-0.4,0.4l-0.3,0.6l-0.1,0.7v0.4l0,0.4l0,0.4l-0.1,0.4l-0.1,0.2l-1,1.3l-0.2,0.2l-0.3,0.1l-0.3-0.1l-0.3-0.3l-0.3-0.3l-0.1-0.3
	l0.7-1.7l0.2-0.8l-0.3-0.7l-0.3-0.2l-1.2,0l-2.2-0.9l-0.7,0l-0.4,0.2l-0.6,0.6l-0.4,0.2l-0.4,0l-1.2-0.2l-0.8,0.3l-0.4,0.1l-0.3-0.3
	l0.1-0.6l0.3-0.7l0.1-0.6l-0.6-0.2l-0.5,0.1l-0.4-0.1l-0.3-0.3l-0.2-0.7v-0.9l0.1-0.7l-0.1-0.5l-0.5-0.3l-0.9-0.2l-1.8-0.1l-2.1,0.7
	l-1.4-0.2l-3.9-1.8l-4.6-0.2l-0.3-0.2l-0.3-0.4l-0.1-0.3l0.1-0.3v-0.2l-0.2-0.1l-4.8-0.2l-0.6-0.3l-1.3-1.2l-0.6-0.1l-1.4,0.1
	l-4.4-0.8l-1.7,0.3l-6.9-0.1l-3.5-0.9l-0.9,0l-0.9,0.3l-1.8,1l-5.8,0.9l-0.4,0l-1.3-0.3l-5.2,0.4l-0.4,0.2l-0.4,0.5l-0.8,1.1
	l-0.3,0.7l-0.5,2.2l-0.6,0.8l-2.3,1.6l-3.1,2.8l-0.8,0.1l-0.6-0.6l-0.6-0.7l-0.8-0.3l-0.5-0.1l-1.5-0.4H141l-2,0.5l-0.3,0.1
	l-0.2,0.2l-0.3,0.4l0,0.3l0.1,0.3l0.6,1.6l0.1,0.3l-0.1,0.5l-0.2,0.1l-0.2-0.2l0,0.2l0.1,0.5l0.5,0.2l0.4,0.1l0.3,0.2l-0.3,0.7
	l0,0.2l0.8,1.3l0.2,0.4l-0.2,0.1l-0.2,0.2l0,0.3l0.1,0.4l-0.4,0.2l-0.4,0.4l-0.3,0.5l-0.1,0.4l0.1,0.7l0.3,0.2h0.4l0.3,0.2l1.1,2.6
	l0.5,0.6l1,0.7l1,1l0.2,0.4l-0.3,0.2l-0.1,0.3l0.3,0.7l0.5,0.8l0.2,0.4l0.2,1.4v0.2l-0.1,0.3l0.2,0.1l0.3,0.1l0.3,0.2l0.2,0.3
	l0.1,0.3l0,0.3l0.1,0.4l0.3,0.5l1.4,1.3l1.7,1l0.3,0.4l-0.3,0.6l-0.6,0.1h-0.7l-0.4,0.2l-0.5-0.3l-0.6,0.1l-0.5,0.4l-0.3,0.6l0,0.6
	l0.3,0.4l0.5,0.2l0.6,0.1v0.2l-0.3,0.6l0.3,0.5l0.6,0.3l0.5,0.1l-0.1,0.8l0.2,0.7l0.5,1.3l-0.5,0.8l0.2,1.6l0.1,0.4l0.1,0.1l0,0.1
	l-0.3,0.4l-0.4,0.4l-1.3,0.7l-0.1,0.4l0,0.6l0,0.4l-0.1,0.3l-0.5,1.1l-1.1,0.5l-3.7,0.1l-0.7,0.2l-0.4,0.2l-0.3,0.3l-0.2,0.5
	l-0.3,0.9l-0.3,0.4l-1.6,1.8l-0.6,0.5l-1.1,0.9l-0.9,0.7l-4.7,5.2l-0.6,1l-0.8,0.6l-0.8,0.9l-2.2,3.3l-0.9,0.9l-0.1,0.3l-0.2,0.7
	l-0.1,0.2l-0.2,0.2l-0.4,0.1l-0.2,0.1l-0.2,0.2l-1.3,2.3l-0.3,0.4l-0.2,0.1l-0.4,0.1l-0.2,0.2l-0.2,0.3l-0.4,1l-1.6,2.1l-0.5,1.2
	l0.4,1.2l0.1,0.5l0.1,1.4l0.1,0.4l0.1,0.2l0.3,0.4l0.4,0.5l0.1,0.2l0.1,0.5l0.3,2.9l-0.1,0.5l-0.3,1l-0.3,1.1l-0.3,0.7l-0.1,0.4
	l0.1,0.2l0.1-0.1l0.3-0.3l0.3,0.2h0l-0.1,0l0.7,0.5l0.6,0.8l0.4,0.3l0.9,0.5l0.3,0.3v0.3l-0.2,0.6l0,0.4l0.1,0.3l0.3,0.6l0.1,0.2
	l-0.2,0.5l-0.4-0.2l-0.5-0.4l-0.4-0.2l-0.2-0.1l-0.4-0.6l-0.2-0.2l-0.2,0l-0.5,0.2l-0.8-0.1l-0.4,0.1l-0.4-0.1l-0.5-0.3l-0.8-0.9
	l-0.4-0.1l-0.4,0.4l-0.2,0.5l-0.2,0.7l-0.1,0.7v0.5l-0.3,0.3l-0.8,0.1l-0.4,0.3l-0.4,1.3l-0.3,0.6l0,0.2v0.4l-0.1,0.2l-0.2,0.3
	l-0.5,0.4l-0.2,0.3l-0.1,0.4v0.2l0,0.3l0.1,1.1l-0.1,0.2l-0.2,0.4l-0.2,0.3l-0.2,0.2l-0.2,0.2l-0.1,0.4l0,0.7l-0.1,0.7l-0.3,0.6
	l-0.3,0.4l-0.3,0.2l-0.5,0.2l-0.3,0.2l-0.2,0.2l-0.2,0.5l-0.1,0.2l-1.4,1.1l-0.3,0.5L108,310l0.2,1.3l-0.1,0.5l-0.2,0.5l0,2.3
	l0.5,0.1h0.1l0.2-0.2l0.7-0.3l0.7,0.1l0.7,0.4l-0.3,0.9v0.5l0.6,0l0.2,0l0.2,0.3v0.3l-0.1,0.4l0,0.4l0.2,0.6l1,1.6l0.1,0.1l0.2,0
	l0.2-0.1l0.2-0.1l0.1,0h0.2l0.4,0.2l0.3,0.1l0.3,0l0.4-0.2h0.1l0.1,0l0.1,0l1.5,2.1l0.3,0.6l0.3,1l0.4,0.7l0.1,0.1h0.1l0.3-0.2h1.5
	l0.4-0.1l0.3-0.2l0.4-0.1l0.3,0.2l0.1,0.2l0.8,0.4l0.6,0.6l0.3,0.3l0.2,0.4l0.2,0.6l-0.1,0.3l-0.1,0.3l0,0.5l-0.4,0.4l0.2,0.4
	l0.8,0.6l0.4-0.1l0.4-0.3l0.2-0.4l-0.2-0.7l0.2-0.4l0.3,0l0.4,0.2l0.3,0.2l0.3,0.2l0.3,0.1l0.3-0.1l0.9-0.7l0.3-0.5l0.5-1.4l0.4-0.6
	l0.4-0.2l0.5,0.1l1.4,0.5l0.4,0.3l0.9,1l1,0.8l0.5,0.6l0.2,0.1l0.2,0h0.2l0.2-0.1h0.1l1.4,0.7l0.4,0l0.2-0.1l0.1-0.2l0.1-0.2
	l0.1-0.2l0.2-0.2l0.2-0.1l0.8-0.2l0.4,0.1l1.3,0.2l0.9,0.3l0.5,0.1l1.4-0.1l0.3,0.2l1.1,1l0.1,0.5h0.4l2.1-0.9l0.6,0l0.3,0.3l1,0.3
	l0.4,0.2l0.8,0.7l0.4,0.1l0,0l1.2,0.5l0.4,0l1.5-0.8l1,0l0.8-0.7l0.5-0.3h0.4l1.2,0.3l1.2,0l0.4,0.1l1,0.6l0.5,0.4l0.3,0.4l0.1,0.5
	l0,0.4l0.1,0.4l0.4,0.4l0.7,0.4l1.7,0.7l0.3,0.3l0.3,0.4l0.7,1.3l0.5,0.8l0.4,0.3l2.4-0.4l1.3-0.6l0.9-0.8l2-3.4l0.9-0.6l10.2-1.1
	l1.4-0.6l1.1-0.1l0.6-0.3l0.3-0.1l1,0.1l1.3-0.4l2,0l1-0.4l0.2-0.3l0.5-1.1l0.3-0.3l0.5-0.5l0.3-0.3l0.3-0.7l0.3-1l0.2-1l0-0.7
	l0.2-1l0.2,0.1l0.4,0l0.4-0.1l0.7-0.3l0.3-0.1l1-0.1l0.3-0.1l2.6-0.6l0.6-0.3l0-0.3l0.1-0.4l0.2-0.4l0.7-0.4l0.1-0.4l0.1-0.3
	l0.4,0.2l0.3,0.3l0.2,0.4l0.3,0.3l0.4,0.2l0.4,0l0.2-0.2l0.1-0.4V317l-0.1-0.6l-0.1-0.4l0-0.3l0.2-0.3h0.1l0.3,0.1h0.2l0.2-0.2
	l0.1-0.2l0.1-0.2l0.2-0.1l0.7,0.3l0.7,0.6l0.7,0.4l0.8-0.1l0.2-0.2l0.2,0l0.1,0.1l0.2,0l0.3,0.1l0.1-0.1l0-0.2l-0.1-0.2l0-0.1v-0.2
	l-0.1-0.3l0-0.2l0.2-0.1l0.2,0.1l0.4,0.3l2.2,0.8l0.7,0l0.8-0.4l1.3-1.6l0.8-0.4l0.4,0.1l0.6,0.6l0.3,0.1l0.3-0.2l1.2-1.1l0.5-0.7
	h0.9l0.2-0.1l0.5-0.4l0.4,0.1l0.1,0.8l0.4,0.2l2.6,0l0.7,0.3l1.3,1l0.3,0.3l0.6,1l0.2,0.2l0.5,0.7l0.8,0.3l1.8,0.2l0.4,0.2l0.3,0.4
	l0.1,0.6l-0.4,1.2l0.3,0.2l0.5,0l0.3-0.1l0.6-0.6l0.3-0.1l0.2,0.5l0.1,0.6l0.2,0.4l0.3,0.1l0.5-0.1l0.4-0.3l0.3-0.3l0.3-0.2l1-0.1
	l0.4,0.1l0.2,0.3l0.1,0.6l-0.2,0.6l-0.2,0.3l-0.3,0.2L236,322l-0.1,0.4l0.1,0.4l0.2,0.3l0.4-0.1l0.3-0.4l0.2-0.5l0.3-0.4l0.5-0.1
	l0.3,0.2l0.2,0.4l0,0.5l-0.3,0.4l0.6,1.2l0.3,0.3l0.4,0.3l0.2,0l0.1-0.3v-0.5l0.2-0.7l0.4-1.1l0.5-0.2l0.7,0l1.9,0.8l1.4,0l0.8,0.1
	l0.6,0.4l0.1,0.2l0.1,0.2l0,0.2l0.1,0.2l0.3,0.8l0.2,0.8l0,0.2l0.1,0.2l0.3,0.3l0.5,1l0.7,0.7l0.7,0.6l0.6,0.3l0.8-0.2l0.9-1.2
	l0.7-0.3h0.4l0.3,0.1l0.3,0.2l0.2,0.4l0.2,0.5l0.2,1.1l0.2,0.4l0.3,0.2l0.8,0.3l0.2,0.2l-0.1,0.4l-0.3,0.4l-0.4,0.4l-0.3,0.3
	l-0.2,0.6v0.3l0.2,0.2l0.7,0.3l0.3,0.2l0.1,0.3l-0.2,0.4l-0.6,0.8l-0.1,1l0,1.1l-0.2,1.2l-0.5,0.9l-0.5,0.7l-0.3,0.8l0.3,1.2
	l0.2,0.4l0.3,0.9l0.2,0.3l0.4,0.3l0.2-0.2l0.2-0.3l0.3-0.2l0.3,0.2l0.4,0.7l0.6,0.4l0.2,0.3l0.1,0.4l0.2,0.3l0.3,0.2l0.3,0.1
	l0.3,0.1l0.3,0.4l0.1,0.5v0.4l0.1,0.4l0.3,0.5l0.3,0.3l0.3,0.2l0.3,0l0.3-0.1l0.4-0.3l0.3-0.4l0.1-0.5l0.2-0.5l0.4-0.1l0.4,0
	l0.4,0.2l0.3,0.3l0.3,0.5l0.2,0.7l0,0.7l-0.2,0.5l-0.5,0.3l-0.1,0.7l0.2,1.6l-0.1,0.8l-0.3,0.4l-0.4,0.1l-0.6,0.1l-0.1,0.1v0.2
	l0.1,0.1l0.6,1.2l0.2,0.2l0.2-0.2l0.2-0.4l0.2-0.3l0.4,0l0.3,0.2l0.2,0.3l0.2,0.4l0,0.5l-0.2,0.4l-0.3,0.3l-0.2,0.3l-0.2,1.1
	l-0.1,0.5l0,0.4l0.2,0.3l0.1,0l0.5-0.1l0.2,0.1l0.3,0.4l0.2,0.2l0.3,0.1l0.7,0.1l0.3,0.1l0.3,0.3l0.5,0.8l0.4,0.3l0.7,0.1l0.6-0.1
	l0.6,0.1l0.6,0.5l0.1,0.2l0.2,0.6l0.1,0.2l0.2,0l0.2-0.1l0.2-0.1l0.2,0.1l0.1,0.2v0.7l0,0.3l0.1,0.2l0.2,0.4l0.1,0.2l0,0.6l-0.2,1.9
	l-0.1,0.3l-0.1,0.3l-0.1,0.3v0.4l0.1,0.3l0.3,0.6l0.1,0.3l-0.2,0.7l-0.5,0.1l-0.4,0l0.1,0.7l0.3,0.4l0.9,0.4l0,0.1l0.1,0.3l0.1,0.1
	l0.1-0.1l0.3-0.2h0.1l0.2,0.1l0.1,0.2l0.3,0.5l-0.2,0.3l0.9,0.8l0.3,0.4l0.2-0.2l0.3-0.1l0.3,0.1l0.3,0.2l-0.5,0.9l-0.5,0.5
	l-0.9,0.2l-2.4-0.2l-0.3,0.1l-0.4,0.2l-0.8,0.7l-0.4,0.1l-0.4-0.5l-0.1-0.2v-0.6l0-0.3l-0.1-0.3l-0.4-0.7l-1.1-1.1l-0.3-0.5v0.8
	l-0.2,0.4l-0.4,0.2h-0.6l-0.1,0.2l0.1,0.7l-0.2,0.5l-0.3,0.3l-0.3,0.1l-0.4,0l-0.3-0.2l-0.3-0.4l-0.3-0.7l-0.3-0.3l-0.3-0.1
	l-0.6-0.1l-0.3-0.1l-0.1-0.2l0-0.2l0-0.2l0.1-0.2l0.1-0.2l0.1-0.2l0-0.2l-0.1-0.2l-0.5-0.1l-0.4,0.2l-0.4,0.4l-0.9,1.4h-0.3
	l-0.4-0.6l-0.5-1.1l-0.3-0.1l-0.4,0.6l-0.1,0.4l0.1,0.6v0.3l-0.2,0.4l-0.1,0.1l-0.2-0.1l-0.3,0.1l-0.8,0.8l-0.5,0.3l-0.4-0.3v-0.3
	l0.1-0.3l0.2-0.3l0.1-0.3l0.1-0.4l0-2.6l-0.1-0.7l-0.3-0.4h-0.4l-1.8,1.1l-1.1,0.4l-1.5,1.1l-0.4,0.7l-0.1,0.8l0.2,1.1l0.4,1.4
	l0,0.5l-0.1,0.6l-0.2,0.4v0.4l0.4,0.5l1.2,1.2l0.1,0.7l-0.2,0.7l-0.5,0.8l-0.7,0.8l-0.2,0.5l0.1,0.7l0.4,1.3l-0.1,0.6l-0.5,0.2
	l-3.6,0.9l-0.4,0.2l-0.2,0.4v0.5l0.3,1.1l0.1,0.6l0,0.6l-0.1,0.4l-0.3,0.3l-0.4,0.2l-0.6,0.1l-0.2,0.1v0.2l0.1,0.3l0,0.3l-0.1,0.3
	l-0.5,0.3l-1.4,0.1l-0.3,0.6l0.2,0.6l-0.1,0.2l-0.6,0.2l-0.4,0.2l-0.2,0.2l-0.5,0.7l-0.2,0.3l0.2,0.2l0.3,0.2l0.3,0.3l0.1,0.4l0,0.4
	l0.1,0.4l0.3,0.4l-0.5,0.3l-0.1,0.1l-0.1,0.3v0.1l0.1,0.1l0.1,1l-0.1,0.3l-0.4,0.2l-1.3-0.1l-1.6-0.4l-1.5-0.1l-1.1,0.8l-0.2,0.3
	l-0.2,0.4l-0.1,0.2l0.3,0.3l0.5-0.1l0.6,0.3l0.4,0.6l-0.1,0.6l0.6,1.6l0.4,0.7l0.5,0.3l0.3,0.1l0.7,0.4l1.8,0.5l1.7,0.9l2.8,0.6
	l0.8-0.1l0.7,0l0.3-0.1l0.2-0.3l-0.6-0.3l-0.2-0.1l-0.1-0.2l-0.1-0.3l0.1-0.2l0.6-0.3l0-0.4l0-0.4l0.5-0.1l0.3,0.1l0.5,0.4l0.5,0.1
	l0.3,0.2l0.3,0.4l0.4,0.2l0.5-0.2l0.1-0.2l0.1-0.6l0.1-0.3l0.2-0.1l0.2-0.1l0.5,0l0.3-0.2l1.1-0.9l0.9-0.3l0.4-0.2l0.3-0.3l0.2-0.1
	l0.5,0l0.1-0.1l0.1-0.2l0.2-0.2l0.3-0.3l0.4-0.2l0.3,0l0.3,0.1h0.4l0.2-0.1l0.2-0.1l0.2-0.2l0.1-0.2l0.2-0.1l0.2,0.1l0.2,0.1
	l0.2,0.1l1.6,0.2l2.9,1.1l1,0.9l0.2,0.1l0.5,0.4l0.3,1l0.1,1.2l-0.3,0.8l0.1,0.2l0,0.2l-0.1,0.2l-0.1,0.2l0.3,0.1l0.4-0.1l0.3-0.2
	l0.4-0.4l0,0l0-0.1l0-0.2l0.1-0.3l0.2-0.7l0-0.2l0.2-0.4l0.1-0.3l0-0.3l-0.1-1.3l-0.1-0.6l-0.2-0.6l-0.3-0.3l0.4,0l0.2-0.4l0-0.6
	l-0.2-0.5l-0.3-0.4l-0.2,0.2l-0.1,0.5l-0.1,0.4l-0.1-0.5l-0.1-0.1l-0.2,0l-0.2-0.1v0.1l-0.1,0.1l-0.1,0l-0.1-0.1v-0.7l-0.3,0.1
	l-0.1,0.3l0,0.4l-0.1,0.3l-0.2,0l-0.2-0.2l-0.2-0.2l-0.3-0.7v-0.3l0.3-0.1l0.1-0.1l0.1-0.3l0.1-0.3l0.2-0.1l0.3-0.2l0.7-1.1l0.3-0.3
	l-0.5,0.6l-0.3,0.2l-0.4,0.1l-0.4,0l-0.3-0.1l-0.5-0.3l0.2-1.3l-0.1-1.4l0.1-1.2l0.7-0.6l-0.2-0.3l-0.1-0.2l-0.1-0.2l0-0.4l0.1-0.4
	l0.4-0.5l0.1-0.2l-0.1-0.1l-0.3-0.4l-0.1-0.2l0.1-0.2l0.1-0.2l0.1,0l0.1,0.3l0.1,0.1l0.4,0.4l0.1,0l0.1,0.1l0.1,0.2l0.2,0.3l0,0.2
	l-0.1,0.2l-0.1,0.5l0.1,1.4l-0.1,0.2l0.5,0.3l0.4,0.6l0.2,0.8l0,0.8l0.3-0.2l0.6-0.2l0.3-0.2l-0.1-0.2V399l0.1-0.1l0.1-0.2l0.4,0.2
	l0.4-0.2l0.3-0.3l0.4-0.2l0.1-0.1l-0.2-0.2l-0.3-0.3l-0.5-0.2l-0.3-0.2l-0.2-0.4l0.1-0.6l0.4-0.3l0.6-0.1h0.5l0.1-0.1l0.1-0.1
	l0.1-0.1l0.1-0.1l0.2,0.1l0,0.1l0,0.1l0.1,0.1l0.4,0.3l0.2,0.2l0.1,0.3l0.1-0.8l-0.2-0.2l-0.2-0.3l-0.1-0.4l0-0.5l0.2-0.4l0.2-0.1
	l0.1,0.2l-0.1,0.3v0.2l0.2,0.3l0.2,0.3l0.1-0.7l0.1-0.7l0.2-0.6l0.5-0.2l0.5,0.2l1,0.8l0.2-0.1l0.1-0.1l0.1,0.1l0.1,0.1l0.1,0.1
	l0.2,0l0-0.1v-0.2l0.1-0.2l0-0.2l0.1-0.8l0.1-0.3l0.2-0.3l0.2-0.2l0.2,0.1l0.1,1.7l-0.1,0.4l1.4-1.1l1.2-1.2l2.3-3.1l2.6-2.5
	l0.2-0.4l0.4-1.2l0.2-0.2l0.3-0.2l0.3-0.4l0.4-0.9l1.5-2.1l0.6-1.2l0.1-0.3v-0.3l-0.2-0.2l-0.5-0.3l-0.1-0.2l0.3-0.4l1.1,0.1
	l0.3-0.3l0.9-1.2l0.1-0.1l0.2-0.9l0.1-0.2l0.1-0.1l0.1-0.1l0.1-0.1l-0.1-0.2l-0.2-0.2h-0.1l-0.2-0.6l-0.3-0.8l-0.1-0.4l0.1-0.3
	l0.6-0.9l0.3-0.2h0.2l0.9,0.2l0.3-0.1l1.2-0.9l0.3-0.1l0.2,0.1l0.2,0l0.5-0.4l0.2-0.1l0.5-0.1l0.9-0.3l1.1-0.2l1.1-0.3h0.6l1.4,0.4
	l0.4,0.3l0.2-0.2l0.3,0.2l0.6,0.1l0.3,0.2l0.3-0.2l0.9-0.5l0.4-0.1l0.3-0.3l0.7-1.1l0.3-0.3l0-0.1l0.4-0.6l0.2-0.4l-0.1-0.2
	l-0.7-0.5l-0.2-0.1l-0.1-0.2l-0.1-0.4l0-0.2l-0.2-0.8l0.3,0.1l0.2,0.4l0.3,0.8l0.3,0.2l0.3,0.2l0.2-0.1l0.1-0.1l0-0.1l0.4-0.6
	l0.1-0.2l0.2-0.1l0.4-0.2l0.2-0.1l0.2-0.4l0.1-0.4l0.2-0.2l0.3,0.4l-1,1.4l-0.3,0.2v0.3l-0.3,0.7l-1.1,1.9l-0.2,0.5l0.1,0.4l0.2,0.1
	l0.2,0l0.4,0l0.2,0.1l0.3,0.3l0.2,0.1l0.5-0.1l0.2-0.4l0.2-0.4l0.4-0.2l1.2-0.1l2,0.8l0.9,0.1l0.9-0.2l0.2-0.1l0.5-0.3l0.2-0.2
	l0.2-0.4l0-0.2c0,0-0.1,0,0-0.1"/>
<g id="building_22_">
	<g id="windows_11_">
		<rect x="227.7" y="288.7" class="st1" width="8.7" height="13.7"/>
		<rect x="240.3" y="280.7" class="st1" width="12" height="12"/>
		<rect x="259.3" y="280.7" class="st1" width="10.1" height="14.8"/>
		<rect x="250" y="300" class="st1" width="10.4" height="10.4"/>
		<rect x="259.3" y="314.7" class="st1" width="10" height="12"/>
		<rect x="260.4" y="331.7" class="st1" width="9.5" height="9.5"/>
		<rect x="236.3" y="318.3" class="st1" width="13.3" height="13.3"/>
		<rect x="246.3" y="336.4" class="st1" width="8.9" height="11.9"/>
		<rect x="252.3" y="380.5" class="st1" width="8.1" height="13.3"/>
	</g>
</g>
<g id="building_20_">
	<g id="windows_10_">
		<rect x="295.7" y="278" class="st1" width="8.7" height="13.7"/>
		<rect x="318.2" y="267.3" class="st1" width="12.8" height="14.5"/>
		<rect x="295.7" y="259.7" class="st1" width="11.8" height="13"/>
		<rect x="284.3" y="250.2" class="st1" width="8.3" height="10.3"/>
		<rect x="304.4" y="294.7" class="st1" width="15.1" height="15.1"/>
		<rect x="284.3" y="301" class="st1" width="14.2" height="11"/>
		<rect x="286" y="315.5" class="st1" width="10.6" height="10.6"/>
		<rect x="297.2" y="326.1" class="st1" width="10.3" height="10.3"/>
		<rect x="304.4" y="341.1" class="st1" width="12.6" height="10.9"/>
		<rect x="318.2" y="328.8" class="st1" width="10.3" height="12.3"/>
		<rect x="287.8" y="363.8" class="st1" width="10.7" height="10.7"/>
	</g>
</g>
<g id="building_18_">
	<g id="windows_9_">
		<rect x="373.3" y="302.9" class="st1" width="13.2" height="13.7"/>
		<rect x="364.3" y="291.7" class="st1" width="12.2" height="8.3"/>
		<rect x="352.5" y="309.7" class="st1" width="14.8" height="10.9"/>
		<rect x="345.3" y="326.1" class="st1" width="11.3" height="15"/>
		<rect x="365.6" y="339.8" class="st1" width="20.9" height="8.5"/>
		<rect x="352.5" y="354.8" class="st1" width="13.1" height="13.1"/>
	</g>
</g>
<path class="st7" d="M315.2,383.8l-0.9-0.4l-7.5-1.6l-3.3-1.3l-0.7-0.6l-0.6-0.9l-0.2-0.5l-0.2-0.8v-0.6l0.4,0.2l0.3,1.3l0.3,0.9
	l0.5,0.6l0.8,0.5l6.7,1.7l2.7,0.7l1.7,0.7l0.3,0.2L315.2,383.8z M480.9,278.4l-0.3,1.1l0,1.2l-0.2,0.3l-0.5,0.3l-0.4,0.3l-0.7,1.1
	l-0.4,0.4l-1.2,0.8l-0.6,0.6l-0.4,0.8l-0.1,0.4l0.1,1l-0.1,0.3l-0.2,0.2l-0.3,0l-0.6-0.1h-0.6l-1.7,0.6l-1-0.1l-0.4,0.3l-0.2,1.6
	l0.3,0.4l0.4,0.3l0.4,0.4l0.3,0.6l0.2,0.4l0.2,0.3l0.5,0.2l1.6,0.4l0.7-0.1l0.2,0.1l0.2,0.2l0.4,0.5l0.3,0.1l0.4-0.2l0.4-0.5
	l0.4-0.4l0.5,0.1l0.4,0.5l0.1,0.6l-0.3,0.6l-0.4,0.5l-0.9,0.7l-0.8,0.1l-2.3-0.9l-0.5,0l-0.4,0.2l-0.4,0.5l-0.2,0.3l-0.1,0.4
	l-0.2,0.3l-0.5,0.2l-0.2,0.3l-1.3,4.3l-0.2,0.8l0.8-0.1l0.4-0.2l2.5,0.3l0.5,0.3l0.4,0.6l0.2,0.8l0,0.2l0.1,0.2l0.1,0.1l0,0.1
	l-0.1,0.3l-0.2,0.1l-0.2,0l-0.1,0l0.1,0.5l0.2,0.3l0.2,0.2l0.6,1.4l0.2,0.8l0.2,0.4l0.2,0.3l-0.5,0.5l-0.4,0.5l-1.4,1.2l1.4,0.9
	l0.4-0.1l1.1-0.4l0.4,0.1l0.3,0.5l-0.1,0.6l-0.3,0.6l-0.4,0.4l-1,0.8l-0.4,0.5l-1,2l-0.3,0.6l-0.1,0.7l0.3,1l0,0.3l-0.1,0.1l-0.1,0
	l-1.1,0.2l-0.2,0.2l-0.2,0.3l0.1,0.2l0.2,0.2l0.2,0.3l0.3,0.7l0,0.3l-0.1,0.5l-0.1,0.2l-0.2,0.5l-0.1,0.3v0.2l0.1,0.4l0,0.2
	l-0.2,0.9l-0.3,0.8l-0.5,0.5l-0.7,0.1l-2.1-0.6l-0.6-0.1l-1.3,0.3l-0.6-0.1l-0.5-0.2l-0.9,0.3l-0.5,0l-0.4-0.2l-0.7-0.5l-0.4-0.1
	l-3.1,0.1l-0.8,0.2l-0.4,0l-0.4-0.1l-1.1-0.8l-3.4-0.1l-1,0.4l-0.7,0.9l-0.5,1.2l-0.4,1.4l-0.2,1.3l-0.2,0.5l-0.4,0.1l-0.7-0.3
	l-0.3,0.1l-0.4,0.3l-0.8,0.9l-0.4,0.3l-0.5,0.2l-4.3,0.6l-0.7,0.5l-0.5,0.9l-0.4,1.1l-0.3,1.1l0.1,2.2l-0.1,0.9l-0.5,0.9l-0.6,0.9
	l-0.3,0.6l-0.1,0.5l0.3,0.3l0.4,0.1l0.8-0.1l0.4,0l0.3,0.2l0.2,0.3l-0.1,0.6l-0.3,0.4l-0.4,0.3l-0.5,0.2l-0.4,0.3l-0.4,0.7l-0.1,0.9
	l0.1,1l0.3,0.8l-0.4,0.4l-1.1,1.6l-0.7,0.3l0.5-1v-0.5l-0.5-0.2l-0.7-0.6l-0.1,0.1l-0.1,0.1l-0.5,0.3l-0.2,0.1l-0.8-0.3l-0.5-0.1
	l-0.2,0.1l-1.8-0.3l-2.2,0.8l-0.9,0l-2.7-0.5l-0.7,0.3l-1.3,1.4l-2.2,3.1l-0.5,1.1l-0.3,0.5l-0.5,0.2l0.1-0.8l-0.5-0.6l-0.7-0.4
	l-0.7-0.1l-0.4,0.1l-1,0.8l-2.4,7.9l-0.4,0.1l-0.2,0.1l-0.7,0.6l-0.2,0.1l-0.7,0.3l-1.1,1.1l-0.7,0.1l0.2,0.7l-0.3,0.7l-0.4,0.7
	l-0.2,0.7l-0.2,0.8l-0.4,0.8l-0.5,0.5l-0.5-0.2v-0.2h0.2l0.4,0.2l0.4-0.8l0.3-1.1v-0.6l-0.2-0.1l-0.8-0.9l-0.3-0.2l-0.7-0.2
	l-0.3-0.2l-0.3,0.2l-0.4,0l-0.6-0.2l-0.3,0.1l-0.2,0.2l-0.2,0.2l-0.2,0.1h-1.4l-0.9,0.5l-1,0.2l-0.7,0.3l-0.6,0.5l-1.4,1.5l-0.4,0.7
	l-0.1,0.9h-0.2v-0.4l-0.1-0.1l-0.2,0.1l-0.2,0.1l0,0.2l0,0.1l-0.1-0.3l0.1-0.1l0-0.2v-0.2l-0.2-0.2l-0.1-0.1l-0.2-0.4l-0.1-0.1
	l-0.1-0.1l-0.4-0.2h-0.4l-0.8,0.2l-1.5-0.2l-2.8,0.6l-0.5,0l-1.5,0.9l-1.1,0.7l-0.6,0.5l-1.7,2l-0.7,0.6l-2.4,1.3l-0.4,0.3l-0.3,0.4
	l-0.6,0.9l-0.3,0.3l-0.7,0.5l-0.3,0.3l-2,3.3l-0.4,0.5l-1.1,2.3l-0.5,0.7l-0.5,0.5l-0.8,0.3l-0.5,0.4l-0.7,0.2l-0.5,0.4l-0.8,0.4
	L374,386l0.1-0.3l0.7-0.8l0.7-0.5l-0.1-0.1l-0.1-0.3l2.2-0.7l1.1-0.6l0.6-1.2l0.5-0.6l0.2-0.5l0.6-1.1l0.8-0.8l0.3-0.5l0.1-0.8
	l-0.4,0.4l-0.4,0.3l-0.4,0l-0.5-0.4l-0.2-0.7l0.1-0.8l0.4-1.1l-0.2-0.1l-0.3,0l-0.2-0.1l-0.2-0.1l-0.3-0.3l-0.3-0.2l-0.3-0.4
	l-0.2-0.6l-0.1-0.6l-0.4,0.6l0.2,0.6l0.4,0.6l0.2,0.4l0.1,0.4l0.1,0.2l0.1,0.3l-0.1,0.5l-0.2,0.3l-0.7,0.7l-1.2,1.9l-0.7,0.8
	l-0.9,0.6l-2,0.5h-0.2l-0.3-0.1l-0.1-0.2l0-0.2l-0.1-0.1l-0.2,0.1l-0.2,0.3l0,0.3l-0.1,0.3l-0.9,0.4l-0.1,0.1l-0.4,0.5l-0.1,0.3
	l0,0.3l0,0.2l0.1,0.5l0.1,1.9l0.1,0.4l0.2,0.5l0.8,3.7l0.2,0.4l0.2,0.3l0.2,0.4l1.1,3l1.8,3.6l6,8.9l3.1,2.2l0.8,0.1l3.7-1l0.4-0.3
	l0.6-0.6l0.1-0.3l0-0.3l0.1-0.2l0.3-0.1l0.1-0.1l0.3-0.4l0.1-0.1l0.1-0.6l0.2-0.6l0.3-0.4l0.3-0.2l0.5,0.1l0.1,0.3l-0.2,0.5
	l-0.1,0.5l0.2,0.4l0.4,0.3l1.6,0.9l0.8,0.3l0.8-0.2l0.6-0.8l0.3-0.9l0.1-0.1l0.6-0.4l0.4-0.4l0.4-0.2l2.4,0l0.3-0.3l0.3-0.3l0.3,0.1
	l0.2,0.4l-0.2,0.5h0.3l0.2-0.2l0.2-0.2l0.2-0.1l0.4,0.1l0.6,0.4l0.4,0.1l1.2-0.3l0.4,0.1l0.5,0.7l0.3,0.3l0.3-0.1l0.4-0.4l0.3-0.1
	l0.3,0.2l0.3,0.4l0.4,1l0.2,0.7L408,408l-0.7,0.2h-0.3l-0.2-0.1l-0.6-0.3l-0.5-0.1l-0.4,0.1l-0.3,0.3l-0.1,0.6l0.1,0.2l0.1,0.1
	l0.1,0.1l-0.1,0.3l-0.2,0.1l-0.5,0l-0.2,0.1l-0.3,0.4l-0.2,0.6l-0.2,0.6l-0.2,1.7v0.6l0.1,0.6l0.6,0.6l0.3,0.4l-0.1,0.4l-0.3,0.3
	l-1.5,0.6l-1.8,0.1l-0.2,0.1l-0.2,0.1l-0.1,0.2l-0.1,0.5l-0.1,0.2l-0.4,0.1l-1.8-0.4l-1.2-0.7v0.2l-0.7-0.3l-0.5,0.5l-0.4,0.7
	l-0.3,0.3l-1.6-0.1l-1.4,0.3l-0.4-0.2l-0.2-0.7l-0.1-0.3l-0.6-0.8l-0.2-0.2l-1.4-0.9l-1.5-0.6l-0.9-0.2h-0.9l-0.9,0.2l-0.8,0.4
	l-1.1,0.9l-0.2,0.2l-0.1,0.3l-0.1,0.2l-0.1,0.2l0.1,0.3l0.1,0.1l0.6,0.3v0.2l-0.3,0.1l-0.7-0.1l-0.3,0.1l-0.2,0.3l0,0.4l0.1,0.9
	l-1-0.8l-0.1,0.1l-0.2,0.2l-0.1,0.1l-0.5-0.3l-0.4,0.3l-0.5,1l-0.4,0.3l-0.9,0.2l-0.4,0.2l-0.5,0.9l-0.4,1.3l-0.6,0.9L375,424
	l-0.2-0.3l-0.2-0.4l-0.3-0.4l-0.4-0.2l-0.7,0l-0.2,0l-0.2,0.1l-0.2,0.2l-0.1,0.2l-0.2,0.1l-0.4,0.1l-0.7-0.2l-0.3,0.2l-0.3,0.2
	l-1.4-0.3l-0.8,0.3l-1.5,1l-0.8,0.3l-1.7,0.4l-0.7,0.3l-0.5,0.6l0-0.1v-0.1l0,0h-0.1l-0.8,1.2l-0.1,0.2l-0.2,0.3l-0.7,1.2l-0.8,2.1
	l-0.2,0.4l-0.2,0.1l-0.5-0.1h-0.3l-0.2,0l0,0.1l-0.1,0.1v0.2l-0.1,0.1l-0.4,0.7l-0.3,0.2l-1,0.2l-0.3,0.3l-0.2,0.4l-0.3,0.5
	l-0.2,0.2l-0.7,0.5l-0.3,0.1l-0.5,0.1l-2.2,1.1l-0.4,0.1l-0.5-0.1l-1.3-0.5h-0.3l-0.4,0.1l-0.2,0l-1.4,0l-0.4-0.1l-1.6-0.7l-0.3-0.3
	l-0.1-0.6l-0.1-0.3l-0.6-0.8l-0.2-0.2l-0.4,0l-0.4,0.1l-0.4,0l-0.4-0.3l-0.3-0.3l-2.2-1.6l-0.2-0.3l0-0.3l0.1,0.1l0.6-0.1l0.2-0.1
	l0.5-0.3l0.2-0.1l0.4,0l0.2,0l0.2-0.1l0.3-0.1l1.1,0l0.4-0.2l-0.3-0.1l-0.7-0.1l-0.2-0.2l0-0.4l0.2-0.4l0.3-0.3l0.2-0.3l0.1-0.5
	l0-0.3l-0.2-0.6l-0.1-0.8l-0.1-0.4l-0.2-0.4l0.2-0.1l0.1-0.1l0.1-0.2l0.1-0.6l0.2-0.5l0.3-0.4l0.8-0.3l0.2-0.4l0.1-0.5l0.1-0.6v-0.7
	l-0.2-1.2l-0.1-0.5l-0.1-0.2l-0.4-0.7l-0.1-0.3l-0.1-0.8l-0.3-1.2l-0.5-0.7l-1.4-0.9l-1.1-1.1l-0.4-0.2l-0.9,0.1l-0.8,0.3l-0.7,0.4
	l-0.5,0.1l-0.2-0.3l-0.2-0.4l-0.4-0.2l-0.9-0.3l-0.3-0.3l-0.7-0.9l-0.5-0.3l-0.2-0.3l-0.2-0.4l-0.2-0.1l-0.4-0.2l-0.2-0.1l-1.3-1.2
	l-0.8-0.5l-0.9-0.3l-3.1-0.3l-0.4,0.1l-0.3,0.2l-0.7,0.8l-0.3,0.2h-1.5l-0.4-0.2l-0.7-0.4l-0.5-0.1l-0.6-1.6l-0.1-0.4l0.3-0.8
	l0.6-0.7l2.4-1.9l0.4-0.1l0.5-0.1l0.4-0.1l0.3-0.2l0.3-0.2l0.2-0.2l0.1-0.2l0.2-0.2l0.3-0.1l0.2,0l0.4,0.2l0.2,0l0.3-0.1l0-0.2
	l-0.1-0.3l0-0.2l0.1-0.3l0.1-0.2l0.2-0.2l0.6-0.7l1.4-1l4.7-2.2l0.3-0.2l0.1-0.4l-0.1-0.1l-0.2-0.1l-0.2-0.2l0-0.3l0.2-0.2l0.2,0.1
	l0.3,0.4l0.7,0.4l0.7-0.1l1.5-0.9l0.8-0.3l0.1-0.2l0.6-0.7l0.3-0.1l0.9-0.6l0.3-0.1l0.2,0.1l0.4,0.3l0.3,0.1l0.2,0l0.5-0.2l0.5-0.6
	l0.4-0.3l0.2-0.1l0.2,0l0.2,0.1l0.2,0.1l0.2,0.2l0.1,0.2l0.1,0.2l0.2,0l0.4-0.1l0-0.3l-0.1-0.7l0.1-0.6l0.3,0.1l0.3-0.2l0.7-0.2
	l0.4-0.2l-0.4-0.3l-0.4-0.2l-1.2-0.3l-0.5,0.1l-0.2,0.1l-0.2,0.2l-0.2,0.1l-0.3-0.2l0.4-0.5l0.2-0.3l0.1-0.1l-0.2-0.1l0-0.2l0.1-0.3
	l0.2-0.3l0-0.2l-0.3-1l0-0.3l0.2-0.3l0.2-0.3l-0.1-0.5l-0.6-1.2l-0.3-0.3l-0.5,0.2l-0.4,0.4l-0.4,0.4l0,0.4l0.5,0.4v0.2l-0.5,0
	l-0.5,0.2l-0.2,0.4l0.4,0.6h-0.2l-0.4-0.2h-1.3l-0.2-0.2l-0.6-0.9l-0.5-0.5l-0.5-0.1l-0.4,0.6l-0.1-0.2l-0.1,0h-0.1l-0.1,0l0.3-0.3
	l0.2-0.4l-0.1-0.3l-0.5-0.2l-1.6,0.2l0.2-0.4l0.1-0.4l0.2-2.1l-0.5,0.5L337,383l-0.4,0.8l-0.7,0.3l-0.2,0l-0.3,0.1h-0.2l-0.2-0.1
	l-0.4-0.3l-1.2-0.6l0.2,0.9l-0.3,0.4l-2.2,0.4h-0.3l-0.2,0l-0.2-0.1l-0.2,0l-0.5,0l-0.2,0l-1.1-0.4l-0.5-0.1l-0.3,0.1l-0.8,0.4
	l-2.6,0.5l-0.2,0.1l-0.2,0.2l-0.3,0.4l-0.2,0.1l-0.8,0.1l-4.2-1.2l-0.5-0.3l-0.3,0l-0.1-0.1l0-0.1l-0.1-0.4l0-0.1l-0.1-0.2l-0.1-0.4
	l-0.1-0.2l0.4-0.4l0.1-0.2l0.1-0.3l-0.6,0.3l-0.5,0.1l-0.5-0.1l-0.9-0.3l-0.3-0.1l-0.3-0.2l-0.8-1.1l-0.6-0.5l-0.6,0.3l-1-0.6
	l-1.7-1.3l-0.1,0.4l0.1,0.4l0.1,0.3l-0.2,0.1l-1.3-0.1l-0.4-0.1l-0.3-0.2l-0.3-0.3l-0.1-0.5l0.3-0.4l0.4-0.3l0.3-0.2l0.4-0.1
	l1.1,0.3l1.6-0.3l0.2-0.1l1.1-1l0.3-0.1h0.3l0.2-0.1l-0.2-0.4l-0.9-1.3l-0.3-0.1l-0.8,0.1l-0.9-0.2l-2.9-1.2l-0.5-0.1l-0.5,0
	l-0.3,0.2l-0.3,0.3l-0.1,0.2l-0.1,0.2l0,0.3l0,0.9l-0.5-1.3l-0.2-0.2l-0.3-0.1l-2.4-2.5l-0.3-0.7l0.7,0.5l0.5,0.6l0.3,0.2l3.6-0.3
	l0.7,0.2l1.2,0.7l0.3,0.1h1.8l1.8,0.4l1.2-0.2h0.4l2.3,0.5l1.1,0.7l0.9,0.2l0.9-0.1l0.8-0.3l0.6-0.6l-0.4-0.6l0.6-0.8l1.5-1.2
	l0.4-0.3l1-0.1l0.4-0.2l0.3-0.3l0.3-0.2l0.3-0.3l0.2-0.5l-0.5,0.2l-0.5,0.4l-0.6,0.3l-0.5-0.1l-2.8,1.6l-1.5,0.2l-1.4-0.8l-0.3-0.5
	l-0.1-0.1l-0.2,0.1l-0.3,0.4l-0.2,0.1l-0.2,0l-0.4,0.2l-0.2,0l-0.5,0.6l-0.3-0.3l-0.3-1.1l-0.3-0.2l-1.3-0.3l-0.3-0.2l-0.3-0.3
	l-0.3-0.5l-0.3-0.6l-0.1-0.5l-0.1-0.6l-0.2-0.4l-0.2-0.4l-0.2-0.5l-0.1-1.3l0.4-0.9l0.5-0.9l0.4-1.1l0.1-0.6l0-0.4l-0.2-0.3l-1-0.2
	l-0.2-0.3l0.1-0.4l0.6-0.9l0.2-0.3l-0.1-0.2l-0.6-0.1l-0.9,0.2l-0.4-0.1l-0.3-0.3l0.6-1.3l0.1-0.7l-0.3-0.8l-0.3-0.3l-0.3-0.1
	l-0.2-0.1l-0.2-0.5l-0.1-0.6v-0.3l-0.1-0.2l-0.3-0.3l-1.3-0.6L307,351l0.1-0.6l0-0.2l-0.2-0.1l-0.1,0.1l-0.3,0.6l-0.1,0.2l0.1,0.3
	l0.3,0.3l0.4,0.3l0.9,0.2l0.2,0.4l0,1.8l0.1,0.2l0.5,0.1l0.2,0.2l0.1,0.1l0.1,0.1l0.3,0.2l-0.2,0.5l-0.3,0.5l-0.2,0.2l-0.2,1.4
	l0.7,0.3l0.9-0.1l0.7,0.1l-0.6,0.7l-0.3,0.5l-0.1,0.5l0.2,0.5l0.4,0.1l0.5-0.2l0.4-0.3l0.1,0.7l-0.2,0.9l-0.4,0.8l-0.5,0.3l-0.5,0.2
	l-0.4,0.4l-0.3,0.7v0.8l0.8,1.1l0.1,0.2l-0.2,1.3l0.1,0.5l0.1,0.2l0,0.2l-0.2,0.4l-0.2,0.2l-0.5,0.3l-0.2,0.1l-0.9,0.2l-0.9-0.1
	l-2-0.8l-1.2,0.1l-0.4,0.2l-0.2,0.4l-0.2,0.4l-0.5,0.1l-0.2-0.1l-0.3-0.3l-0.2-0.1l-0.4,0l-0.2,0l-0.2-0.1l-0.1-0.4l0.2-0.5l1.1-1.9
	l0.3-0.7v-0.3l0.3-0.2l1-1.4l-0.3-0.4l-0.2,0.2l-0.1,0.4l-0.2,0.4l-0.2,0.1l-0.4,0.2l-0.2,0.1l-0.1,0.2l-0.4,0.6l0,0.1l-0.1,0.1
	l-0.2,0.1l-0.3-0.2l-0.3-0.2l-0.3-0.8l-0.2-0.4l-0.3-0.1l0.2,0.8l0,0.2l0.1,0.4l0.1,0.2l0.2,0.1l0.7,0.5l0.1,0.2l-0.2,0.4l-0.4,0.6
	l0,0.1l-0.3,0.3l-0.7,1.1l-0.3,0.3l-0.4,0.1l-0.9,0.5l-0.3,0.2l-0.3-0.2l-0.6-0.1l-0.3-0.2l-0.2,0.2l-0.4-0.3l-1.4-0.4H295l-1.1,0.3
	l-1.1,0.2l-0.9,0.3l-0.5,0.1l-0.2,0.1l-0.5,0.4l-0.2,0l-0.2-0.1l-0.3,0.1l-1.2,0.9l-0.3,0.1l-0.9-0.2h-0.2l-0.3,0.2l-0.6,0.9
	l-0.1,0.3l0.1,0.4l0.3,0.8l0.2,0.6h0.1l0.2,0.2l0.1,0.2l-0.1,0.1l-0.1,0.1l-0.1,0.1l-0.1,0.2l-0.2,0.9l-0.1,0.1l-0.9,1.2l-0.3,0.3
	l-1.1-0.1l-0.3,0.4l0.1,0.2l0.5,0.3l0.2,0.2v0.3l-0.1,0.3l-0.6,1.2l-1.5,2.1l-0.4,0.9l-0.3,0.4l-0.3,0.2l-0.2,0.2l-0.4,1.2l-0.2,0.4
	l-2.6,2.5l-2.3,3.1l-1.2,1.2l-1.4,1.1l-4.8,4.6l-2.1,1.6l-1.6,0.7l1-0.6l0.4-0.3l0.2-0.3l0.1-0.3l0.3-0.1l0.3-0.1l0.3-0.1l0.3-0.3
	l0.6-0.7l0.3-0.3l3.3-3.1l1.3-0.8l0.1-0.4l-0.1-1.7l-0.2-0.1l-0.2,0.2l-0.2,0.3l-0.1,0.3l-0.1,0.8l0,0.2l-0.1,0.2v0.2l0,0.1l-0.2,0
	l-0.1-0.1l-0.1-0.1l-0.1-0.1l-0.1,0.1l-0.2,0.1l-1-0.8l-0.5-0.2l-0.5,0.2l-0.2,0.6l-0.1,0.7l-0.1,0.7l-0.2-0.3l-0.2-0.3v-0.2
	l0.1-0.3l-0.1-0.2l-0.2,0.1l-0.2,0.4l0,0.5l0.1,0.4l0.2,0.3l0.2,0.2l-0.1,0.8l-0.1-0.3l-0.2-0.2l-0.4-0.3l-0.1-0.1l0-0.1l0-0.1
	l-0.2-0.1l-0.1,0.1l-0.1,0.1l-0.1,0.1l-0.1,0.1h-0.5l-0.6,0.1l-0.4,0.3l-0.1,0.6l0.2,0.4l0.3,0.2l0.5,0.2l0.3,0.3l0.2,0.2l-0.1,0.1
	l-0.4,0.2l-0.3,0.3l-0.4,0.2l-0.4-0.2l-0.1,0.2l-0.1,0.1v0.1l0.1,0.2l-0.3,0.2l-0.6,0.2l-0.3,0.2l0-0.8l-0.2-0.8l-0.4-0.6l-0.5-0.3
	l0.1-0.2l-0.1-1.4l0.1-0.5l0.1-0.2l0-0.2l-0.2-0.3l-0.1-0.2l-0.1-0.1l-0.1,0l-0.4-0.4l-0.1-0.1l-0.1-0.3l-0.1,0l-0.1,0.2l-0.1,0.2
	l0.1,0.2l0.3,0.4l0.1,0.1l-0.1,0.2l-0.4,0.5l-0.1,0.4l0,0.4l0.1,0.2l0.1,0.2l0.2,0.3l-0.7,0.6l-0.1,1.2l0.1,1.4l-0.2,1.3l0.5,0.3
	l0.3,0.1l0.4,0l0.4-0.1l0.3-0.2l0.5-0.6l-0.3,0.3l-0.7,1.1l-0.3,0.2l-0.2,0.1l-0.1,0.3l-0.1,0.3l-0.1,0.1l-0.3,0.1v0.3l0.3,0.7
	l0.2,0.2l0.2,0.2l0.2,0l0.1-0.3l0-0.4l0.1-0.3l0.3-0.1v0.7l0.1,0.1l0.1,0l0.1-0.1v-0.1l0.2,0.1l0.2,0l0.1,0.1l0.1,0.5l0.1-0.4
	l0.1-0.5l0.2-0.2l0.3,0.4l0.2,0.5l0,0.6l-0.2,0.4l-0.4,0l0.3,0.3l0.2,0.6l0.1,0.6l0.1,1.3l0,0.3l-0.1,0.3l-0.2,0.4l0,0.2l-0.2,0.7
	l-0.1,0.3l0,0.2l0,0.1l0,0l-0.4,0.4l-0.3,0.2l-0.4,0.1l-0.3-0.1l0.1-0.2l0.1-0.2l0-0.2l-0.1-0.2l0.3-0.8l-0.1-1.2l-0.3-1l-0.5-0.4
	l-0.2-0.1l-1-0.9l-2.9-1.1l-1.6-0.2l-0.2-0.1l-0.2-0.1l-0.2-0.1l-0.2,0.1l-0.1,0.2l-0.2,0.2l-0.2,0.1l-0.2,0.1h-0.4l-0.3-0.1l-0.3,0
	l-0.4,0.2l-0.3,0.3l-0.2,0.2l-0.1,0.2l-0.1,0.1l-0.5,0l-0.2,0.1l-0.3,0.3l-0.4,0.2l-0.9,0.3l-1.1,0.9l-0.3,0.2l-0.5,0l-0.2,0.1
	l-0.2,0.1l-0.1,0.3l-0.1,0.6l-0.1,0.2l-0.5,0.2l-0.4-0.2l-0.3-0.4l-0.3-0.2l-0.5-0.1l-0.5-0.4l-0.3-0.1l-0.5,0.1l0,0.4l0,0.4
	l-0.6,0.3l-0.1,0.2l0.1,0.3l0.1,0.2l0.2,0.1l0.6,0.3l-0.2,0.3l-0.3,0.1l-0.7,0l-0.8,0.1l-2.8-0.6l-1.7-0.9l-1.8-0.5L237,409
	l-0.3-0.1l-0.5-0.3l-0.4-0.7l-0.6-1.6l0.1-0.6l-0.4-0.6l-0.6-0.3l-0.5,0.1l-0.3-0.3l0.1-0.2l0.2-0.4l0.2-0.3l1.1-0.8l1.5,0.1
	l1.6,0.4l1.3,0.1l0.4-0.2l0.1-0.3l-0.1-1l-0.1-0.1v-0.1l0.1-0.3l0.1-0.1l0.5-0.3l-0.3-0.4l-0.1-0.4l0-0.4l-0.1-0.4l-0.3-0.3
	l-0.3-0.2l-0.2-0.2l0.2-0.3l0.5-0.7l0.2-0.2l0.4-0.2l0.6-0.2l0.1-0.2l-0.2-0.6l0.3-0.6l1.4-0.1l0.5-0.3l0.1-0.3l0-0.3l-0.1-0.3v-0.2
	l0.2-0.1l0.6-0.1l0.4-0.2l0.3-0.3l0.1-0.4l0-0.6l-0.1-0.6l-0.3-1.1v-0.5l0.2-0.4l0.4-0.2l3.6-0.9l0.5-0.2l0.1-0.6l-0.4-1.3l-0.1-0.7
	l0.2-0.5l0.7-0.8l0.5-0.8l0.2-0.7l-0.1-0.7l-1.2-1.2l-0.4-0.5v-0.4l0.2-0.4l0.1-0.6l0-0.5l-0.4-1.4l-0.2-1.1l0.1-0.8l0.4-0.7
	l1.5-1.1l1.1-0.4l1.8-1.1h0.4l0.3,0.4l0.1,0.7l0,2.6l-0.1,0.4l-0.1,0.3l-0.2,0.3l-0.1,0.3v0.3l0.4,0.3l0.5-0.3l0.8-0.8l0.3-0.1
	l0.2,0.1l0.1-0.1l0.2-0.4v-0.3l-0.1-0.6l0.1-0.4l0.4-0.6l0.3,0.1l0.5,1.1l0.4,0.6h0.3l0.9-1.4l0.4-0.4l0.4-0.2l0.5,0.1l0.1,0.2
	l0,0.2l-0.1,0.2l-0.1,0.2l-0.1,0.2l0,0.2l0,0.2l0.1,0.2l0.3,0.1l0.6,0.1l0.3,0.1l0.3,0.3l0.3,0.7l0.3,0.4l0.3,0.2l0.4,0l0.3-0.1
	l0.3-0.3l0.2-0.5l-0.1-0.7l0.1-0.2h0.6l0.4-0.2l0.2-0.4v-0.8l0.3,0.5l1.1,1.1l0.4,0.7l0.1,0.3l0,0.3v0.6l0.1,0.2l0.4,0.5l0.4-0.1
	l0.8-0.7l0.4-0.2l0.3-0.1l2.4,0.2l0.9-0.2l0.5-0.5l0.5-0.9l-0.3-0.2l-0.3-0.1l-0.3,0.1l-0.2,0.2l-0.3-0.4l-0.9-0.8l0.2-0.3l-0.3-0.5
	l-0.1-0.2l-0.2-0.1h-0.1l-0.3,0.2l-0.1,0.1l-0.1-0.1l-0.1-0.3l0-0.1l-0.9-0.4l-0.3-0.4l-0.1-0.7l0.4,0l0.5-0.1l0.2-0.7l-0.1-0.3
	l-0.3-0.6l-0.1-0.3v-0.4l0.1-0.3l0.1-0.3l0.1-0.3l0.2-1.9l0-0.6l-0.1-0.2l-0.2-0.4l-0.1-0.2l0-0.3v-0.7l-0.1-0.2l-0.2-0.1l-0.2,0.1
	l-0.2,0.1l-0.2,0l-0.1-0.2l-0.2-0.6l-0.1-0.2l-0.6-0.5l-0.6-0.1l-0.6,0.1l-0.7-0.1l-0.4-0.3l-0.5-0.8l-0.3-0.3l-0.3-0.1l-0.7-0.1
	l-0.3-0.1l-0.2-0.2l-0.3-0.4l-0.2-0.1l-0.5,0.1l-0.1,0l-0.2-0.3l0-0.4l0.1-0.5l0.2-1.1l0.2-0.3l0.3-0.3l0.2-0.4l0-0.5l-0.2-0.4
	l-0.2-0.3l-0.3-0.2l-0.4,0l-0.2,0.3l-0.2,0.4l-0.2,0.2l-0.2-0.2l-0.6-1.2l-0.1-0.1v-0.2l0.1-0.1l0.6-0.1l0.4-0.1l0.3-0.4l0.1-0.8
	l-0.2-1.6l0.1-0.7l0.5-0.3l0.2-0.5l0-0.7l-0.2-0.7l-0.3-0.5l-0.3-0.3l-0.4-0.2l-0.4,0l-0.4,0.1l-0.2,0.5l-0.1,0.5l-0.3,0.4l-0.4,0.3
	l-0.3,0.1l-0.3,0l-0.3-0.2L258,349l-0.3-0.5l-0.1-0.4v-0.4l-0.1-0.5l-0.3-0.4l-0.3-0.1l-0.3-0.1l-0.3-0.2l-0.2-0.3l-0.1-0.4
	l-0.2-0.3l-0.6-0.4l-0.4-0.7l-0.3-0.2l-0.3,0.2l-0.2,0.3l-0.2,0.2l-0.4-0.3l-0.2-0.3l-0.3-0.9l-0.2-0.4l-0.3-1.2l0.3-0.8l0.5-0.7
	l0.5-0.9l0.2-1.2l0-1.1l0.1-1l0.6-0.8l0.2-0.4l-0.1-0.3l-0.3-0.2l-0.7-0.3l-0.2-0.2v-0.3l0.2-0.6l0.3-0.3l0.4-0.4l0.3-0.4l0.1-0.4
	l-0.2-0.2l-0.8-0.3l-0.3-0.2l-0.2-0.4l-0.2-1.1l-0.2-0.5l-0.2-0.4l-0.3-0.2l-0.3-0.1h-0.4l-0.7,0.3l-0.9,1.2l-0.8,0.2l-0.6-0.3
	l-0.7-0.6l-0.7-0.7l-0.5-1l-0.3-0.3l-0.1-0.2l0-0.2l-0.2-0.8l-0.3-0.8l-0.1-0.2l0-0.2l-0.1-0.2l-0.1-0.2l-0.6-0.4l-0.8-0.1l-1.4,0
	l-1.9-0.8l-0.7,0l-0.5,0.2l-0.4,1.1l-0.2,0.7v0.5l-0.1,0.3l-0.2,0l-0.4-0.3l-0.3-0.3l-0.6-1.2l0.3-0.4l0-0.5l-0.2-0.4l-0.3-0.2
	l-0.5,0.1l-0.3,0.4l-0.2,0.5l-0.3,0.4l-0.4,0.1l-0.2-0.3l-0.1-0.4l0.1-0.4l0.3-0.4l0.3-0.2l0.2-0.3l0.2-0.6l-0.1-0.6l-0.2-0.3
	l-0.4-0.1l-1,0.1l-0.3,0.2l-0.3,0.3l-0.4,0.3l-0.5,0.1l-0.3-0.1l-0.2-0.4l-0.1-0.6l-0.2-0.5l-0.3,0.1l-0.6,0.6l-0.3,0.1l-0.5,0
	l-0.3-0.2l0.4-1.2l-0.1-0.6l-0.3-0.4l-0.4-0.2l-1.8-0.2l-0.8-0.3l-0.5-0.7l-0.2-0.2l-0.6-1l-0.3-0.3l-1.3-1l-0.7-0.3l-2.6,0
	l-0.4-0.2l-0.1-0.8l-0.4-0.1l-0.5,0.4l-0.2,0.1h-0.9l-0.5,0.7l-1.2,1.1l-0.3,0.2l-0.3-0.1l-0.6-0.6l-0.4-0.1l-0.8,0.4l-1.3,1.6
	l-0.8,0.4l-0.7,0l-2.2-0.8l-0.4-0.3l-0.2-0.1l-0.2,0.1l0,0.2l0.1,0.3v0.2l0,0.1l0.1,0.2l0,0.2l-0.1,0.1l-0.3-0.1l-0.2,0l-0.1-0.1
	l-0.2,0l-0.2,0.2l-0.8,0.1l-0.7-0.4l-0.7-0.6l-0.7-0.3l-0.2,0.1l-0.1,0.2l-0.1,0.2l-0.2,0.2h-0.2l-0.3-0.1h-0.1l-0.2,0.3l0,0.3
	l0.1,0.4l0.1,0.6v0.6l-0.1,0.4l-0.2,0.2l-0.4,0l-0.4-0.2l-0.3-0.3l-0.2-0.4l-0.3-0.3l-0.4-0.2l-0.1,0.3l-0.1,0.4l-0.7,0.4l-0.2,0.4
	l-0.1,0.4l0,0.3l-0.6,0.3l-2.6,0.6l-0.3,0.1l-1,0.1l-0.3,0.1l-0.7,0.3l-0.4,0.1l-0.4,0l-0.2-0.1l-0.2,1l0,0.7l-0.2,1l-0.3,1
	l-0.3,0.7l-0.3,0.3l-0.5,0.5l-0.3,0.3l-0.5,1.1l-0.2,0.3l-1,0.4l-2,0l-1.3,0.4l-1-0.1l-0.3,0.1l-0.6,0.3l-1.1,0.1l-1.4,0.6
	l-10.2,1.1l-0.9,0.6l-2,3.4l-0.9,0.8l-1.3,0.6l-2.4,0.4l-0.4-0.3l-0.5-0.8l-0.7-1.3l-0.3-0.4l-0.3-0.3l-1.7-0.7l-0.7-0.4l-0.4-0.4
	l-0.1-0.4l0-0.4l-0.1-0.5l-0.3-0.4l-0.5-0.4l-1-0.6l-0.4-0.1l-1.2,0l-1.2-0.3h-0.4l-0.5,0.3l-0.8,0.7l-1,0l-1.5,0.8l-0.4,0l-1.2-0.5
	l0,0l-0.4-0.1l-0.8-0.7l-0.4-0.2l-1-0.3l-0.3-0.3l-0.6,0l-2.1,0.9h-0.4l-0.1-0.5l-1.1-1l-0.3-0.2l-1.4,0.1l-0.5-0.1l-0.9-0.3
	l-1.3-0.2l-0.4-0.1l-0.8,0.2l-0.2,0.1l-0.2,0.2l-0.1,0.2l-0.1,0.2l-0.1,0.2l-0.2,0.1l-0.4,0l-1.4-0.7H134l-0.2,0.1h-0.2l-0.2,0
	l-0.2-0.1l-0.5-0.6l-1-0.8l-0.9-1l-0.4-0.3l-1.4-0.5l-0.5-0.1l-0.4,0.2l-0.4,0.6l-0.5,1.4l-0.3,0.5l-0.9,0.7l-0.3,0.1l-0.3-0.1
	l-0.3-0.2l-0.3-0.2l-0.4-0.2l-0.3,0l-0.2,0.4l0.2,0.7l-0.2,0.4l-0.4,0.3l-0.4,0.1l-0.8-0.6l-0.2-0.4l0.4-0.4l0-0.5l0.1-0.3l0.1-0.3
	l-0.2-0.6l-0.2-0.4l-0.3-0.3l-0.6-0.6l-0.8-0.4l-0.1-0.2l-0.3-0.2l-0.4,0.1l-0.3,0.2l-0.4,0.1H118l-0.3,0.2h-0.1l-0.1-0.1l-0.4-0.7
	l-0.3-1l-0.3-0.6l-1.5-2.1l-0.1,0l-0.1,0h-0.1l-0.4,0.2l-0.3,0l-0.3-0.1l-0.4-0.2h-0.2l-0.1,0l-0.2,0.1l-0.2,0.1l-0.2,0l-0.1-0.1
	l-1-1.6l-0.2-0.6l0-0.4l0.1-0.4v-0.3l-0.2-0.3l-0.2,0l-0.6,0v-0.5l0.3-0.9l-0.7-0.4l-0.7-0.1l-0.7,0.3l-0.2,0.2h-0.1l-0.5-0.1l0-2.3
	l0.2-0.5l0.1-0.5L108,310l0.1-0.6l0.3-0.5l1.4-1.1l0.1-0.2l0.2-0.5l0.2-0.2l0.3-0.2l0.5-0.2l0.3-0.2l0.3-0.4l0.3-0.6l0.1-0.7l0-0.7
	l0.1-0.4l0.2-0.2l0.2-0.2l0.2-0.3l0.2-0.4l0.1-0.2l-0.1-1.1l0-0.3v-0.2l0.1-0.4l0.2-0.3l0.5-0.4l0.2-0.3l0.1-0.2v-0.4l0-0.2l0.3-0.6
	l0.4-1.3l0.4-0.3l0.8-0.1l0.3-0.3v-0.5l0.1-0.7l0.2-0.7l0.2-0.5l0.4-0.4l0.4,0.1l0.8,0.9l0.5,0.3l0.4,0.1l0.4-0.1l0.8,0.1l0.5-0.2
	l0.2,0l0.2,0.2l0.4,0.6l0.2,0.1l0.4,0.2l0.5,0.4l0.4,0.2l0.2-0.5l-0.1-0.2l-0.3-0.6l-0.1-0.3l0-0.4l0.2-0.6V293l-0.3-0.3l-0.9-0.5
	l-0.4-0.3l-0.6-0.8l-0.7-0.5l0.1,0h0l-0.3-0.2l-0.3,0.3l-0.1,0.1l-0.1-0.2l0.1-0.4l0.3-0.7l0.3-1.1l0.3-1l0.1-0.5l-0.3-2.9l-0.1-0.5
	l-0.1-0.2l-0.4-0.5l-0.3-0.4l-0.1-0.2l-0.1-0.4l-0.1-1.4l-0.1-0.5l-0.4-1.2l0.5-1.2l1.6-2.1l0.4-1l0.2-0.3l0.2-0.2l0.4-0.1l0.2-0.1
	l0.3-0.4l1.3-2.3l0.2-0.2l0.2-0.1l0.4-0.1l0.2-0.2l0.1-0.2l0.2-0.7l0.1-0.3l0.9-0.9l2.2-3.3l0.8-0.9l0.8-0.6l0.6-1l4.7-5.2l0.9-0.7
	l1.1-0.9l0.6-0.5l1.6-1.8l0.3-0.4l0.3-0.9l0.2-0.5l0.3-0.3l0.4-0.2l0.7-0.2l3.7-0.1l1.1-0.5l0.5-1.1l0.1-0.3l0-0.4l0-0.6l0.1-0.4
	l1.3-0.7l0.4-0.4l0.3-0.4l0-0.1l-0.1-0.1l-0.1-0.4l-0.2-1.6l0.5-0.8l-0.5-1.3l-0.2-0.7l0.1-0.8l-0.5-0.1l-0.6-0.3l-0.3-0.5l0.3-0.6
	v-0.2l-0.6-0.1l-0.5-0.2l-0.3-0.4l0-0.6l0.3-0.6l0.5-0.4l0.6-0.1l0.5,0.3l0.4-0.2h0.7l0.6-0.1l0.3-0.6l-0.3-0.4l-1.7-1l-1.4-1.3
	l-0.3-0.5l-0.1-0.4l0-0.3l-0.1-0.3l-0.2-0.3l-0.3-0.2l-0.3-0.1l-0.2-0.1l0.1-0.3v-0.2l-0.2-1.4l-0.2-0.4l-0.5-0.8l-0.3-0.7l0.1-0.3
	l0.3-0.2l-0.2-0.4l-1-1l-1-0.7l-0.5-0.6l-1.1-2.6l-0.3-0.2h-0.4l-0.3-0.2l-0.1-0.7l0.1-0.4l0.3-0.5l0.4-0.4l0.4-0.2l-0.1-0.4l0-0.3
	l0.2-0.2l0.2-0.1l-0.2-0.4l-0.8-1.3l0-0.2l0.3-0.7l-0.3-0.2l-0.4-0.1l-0.5-0.2l-0.1-0.5l0-0.2l0.2,0.2l0.2-0.1l0.1-0.5l-0.1-0.3
	l-0.6-1.6l-0.1-0.3l0-0.3l0.3-0.4l0.2-0.2l0.3-0.1l2-0.5h0.5l1.5,0.4l0.5,0.1l0.8,0.3l0.6,0.7l0.6,0.6l0.8-0.1l3.1-2.8l2.3-1.6
	l0.6-0.8l0.5-2.2l0.3-0.7l0.8-1.1l0.4-0.5l0.4-0.2l5.2-0.4l1.3,0.3l0.4,0l5.8-0.9l1.8-1l0.9-0.3l0.9,0l3.5,0.9l6.9,0.1l1.7-0.3
	l4.4,0.8l1.4-0.1l0.6,0.1l1.3,1.2l0.6,0.3l4.8,0.2l0.2,0.1v0.2l-0.1,0.3l0.1,0.3l0.3,0.4l0.3,0.2l4.6,0.2l3.9,1.8l1.4,0.2l2.1-0.7
	l1.8,0.1l0.9,0.2l0.5,0.3l0.1,0.5l-0.1,0.7v0.9l0.2,0.7l0.3,0.3l0.4,0.1l0.5-0.1l0.6,0.2l-0.1,0.6l-0.3,0.7l-0.1,0.6l0.3,0.3
	l0.4-0.1l0.8-0.3l1.2,0.2l0.4,0l0.4-0.2l0.6-0.6l0.4-0.2l0.7,0l2.2,0.9l1.2,0l0.3,0.2l0.3,0.7l-0.2,0.8l-0.7,1.7l0.1,0.3l0.3,0.3
	l0.3,0.3l0.3,0.1l0.3-0.1l0.2-0.2l1-1.3l0.1-0.2l0.1-0.4l0-0.4l0-0.4v-0.4l0.1-0.7l0.3-0.6l0.4-0.4l0.5-0.1l0.4,0.2l1.2,1.4l0.4,0.2
	l0.4,0.1h2l0.4-0.2l0.5-0.4l0.7-1.3l0.4-0.6l0.4-0.4l0.5-0.2l0.4,0l0.3,0.3l0.1,0.3v0.3l0,0.3l0.2,0.4l0.3,0.3l0.6,0.4l0.3,0.3
	l0.1,0.3l0.2,0.9l0.1,0.3l0.3,0.1l0.3-0.2l0.5-0.5l1-0.7l0.5-0.2h0.6l1.8,0.4l0.5,0.2l0.2,0.4l0.1,0.7l0.3,1.9l0.1,0.5l0.2,0.3
	l0.3,0.2l0.3-0.1l0.3-0.2l0.3,0l0.2,0.4l0.2,0.6l0.2,0.3l0.4-0.4l0.1-0.5L245,215l0.1-0.6l0.4-0.9l0.6-0.7l0.7-0.5l0.6-0.4l0.6-0.1
	h1.3l0.5-0.2l0.4-0.4l0.5-1.1l0.4-0.4l0.4-0.2l0.4,0l0.8,0.2l0.5,0.3l0.3,0.4l0.4,1.2l0.7,1.1l0.2,0.6l0.1,0.9l-0.2,0.9l0.1,0.4
	l0.3,0.3l0.4,0.5l0.2,0.7l0.2,0.7l0.3,0.6l0.5,0.3l0.4-0.2l0.8-0.7l0.5-0.2l0.9,0.4h0.4l0.3-0.6l0.3-0.8l0.2-0.4l0.3-0.2l0.5-0.1
	l0.5-0.2l0.3-0.4l0.2-0.4l0.4-0.4l0.4-0.2l0.5-0.1l0.4,0.1l0.4,0.3l0.3,0.6l0.2,0.5l0.3,0.4l1.9,0.3l0.4-0.1l0.2-0.2l0.3-0.6
	l0.3-0.2l0.2,0l0.3,0.2h0.3l1.2-0.7l0.5-0.2l2.9-0.1l0.6,0.2l0.6,0.4l0.8,1.1l0.3,0.3l1,0.5l0.3,0.3l0.2,0.2l0.1,0.2l0,0.3v0.3
	l0,0.3l-0.2,0.7l-0.1,0l0.2,0.3l0.6,0.8l0.3,0.3l0.3,0.1h0.6l0.3,0.1l0.3,0.3l0.5,0.7l0.3,0.1l0.3,0l0.3,0.1l0.3,0.2l0.2,0.3
	l0.2,0.3l0.2-0.1l0.1-0.2l0-0.8l0.1-0.1l0.4-0.7l0.1-0.5l0.6-0.5l0.6-0.6l-0.1-0.9l0.3-0.1l0-0.2l-0.2-0.2l-0.1-0.2l-0.2-0.9
	l-0.1-0.2l-0.3-0.2h-0.2l-0.2-0.1l-0.1-0.4l0.1-0.4l0.2-0.2l0.2-0.1l0.3,0.1V215l-0.2-0.1l-0.2-0.1l-0.2-0.3l-0.1-0.4l0.1-0.3
	l-0.1-0.3l-0.2-0.2l-0.3-0.2l0.2-0.2l0.1-0.2l0.2-0.4l-0.3-0.2l-0.7-0.2l-0.2-0.3v-0.2l0.1-0.1l0.1-0.1l0.1-0.1l0.2-0.1v-0.2
	l-0.2-0.1l-0.4-0.3v-0.2l0.6-0.6l0.3-0.1l-0.1-0.3l-0.1-0.1l0.1-0.1l0.2-0.3l0.2-0.1l-0.1-0.5l0.2-0.7l-0.1-0.4l0.3-0.1l0.7,0
	l0.2-0.1l0.1-0.3l0-0.4l0.1-0.4l0.2-0.3v-0.3l-0.2,0l-0.4-0.2l0.3-0.3l0.5-0.3l0.4-0.4l0-0.5l-0.2-0.3v-0.1l0.1-0.1l0.1-0.2l0.4-0.6
	l0.1-0.1l0.1-0.1l0.1-0.2l0.1-0.2l0.4-0.2l0.1-0.3v-0.3l0.1-0.2l0.2-0.1l0.6,0.1l0.2-0.1l0.2-0.2l0.3-0.4v-0.2l-0.1-0.1l-0.1-0.2
	v-0.1l0.6-0.2l0.3-0.2l0.3-0.2l0.2-0.3l0.2-0.3v-0.3l0.1-0.2l0.2-0.2l0.2-0.1l0.1-0.1l0.1,0.1l0.1,0.2l0.5,0l0.2-0.4l-0.2-0.5
	l-0.6-0.1l0.1-0.2l0.1-0.2l0.1-0.2l0.1-0.2l-0.1-0.6l0.3-0.4l0.5-0.2l2.8-0.2l0.8,0.1l0.5,0.3l1,0.8l0.5,0.2l0.5-0.2l0.3-0.6
	l0.3-0.7l0.4-0.5l1.6-0.7h1.9l3.6,0.7l2.4-0.1l1.3-0.1l0.7,0.1l0.5,0.5l0.1,0.6v0.6l0.1,0.5l0.4,0.2l0.3-0.1l1.1-0.6l0.8-0.1
	l1.3,0.3l0.4,0l2.9-1.4l0.9-0.7l0.6-1.3l0.3-2.1l0.2-0.6l0.2-0.2l0.3-0.2l0.2-0.2l0.1-0.4l-0.1-0.3l-0.4-0.7l-0.1-0.4l0.3-1.2
	l0.8-0.2l1.8,0.7l1-0.3l4.1,2.2h0.6l1.2-0.3h0.6l0.3,0.2l0.6,0.5l0.4,0.1l0.4-0.2l2.1-1.9l0.4-0.2l0.2,0l0.3,0.2l0.2-0.1l0.2-0.2
	l0.2-0.5l0.2-0.1l0.4-0.2l0.3-0.3l0.5-0.7l0.3-0.2l0.3-0.1l2,0.4h1.3l0.4,0.1l0.6,0.4l0.3,0.2l0.4,0l0.3-0.2l0.3-0.3l0.3-0.2
	l0.4,0.6l-0.1,1.3l0.4,0.6l0.4-0.1l1.4-1.4l1.8-0.9l0.9-0.2l0.9,0l0.5,0.2l0.2,0.3l0.2,0.5l0.3,0.6l0.4,0.4l0.9,0.6l0.4,0.6l0.5,1.2
	l0.3,0.4l1.3,0.9l0.3,0.4l0.3,0.6l0.2,0.4l0.1,0.3l0.1,0.3v0.4l-0.4,0.8v0.2l0.1,0.6l0.1,1.1l0.1,0.7l0.3,0.6l0.4,0.7l0.1,0.6
	l-0.2,0.5v0.3h1l0.4,0.3l0.8,1l0.1,0.1l0.3,0.2l0.1,0.1l0.1,0.2l0.1,0.5v0.1l0.2,0.1l0.4-0.2h0.2l0.4,0.3l0.7,0.8l0.4,0.3l0.8,0.8
	l0.6,1.3l0,1.4l-0.8,0.9L361,207l-1.2,0l-3.5,0.8l-0.8,0.5l-0.2,0.8l0.2,0.3l0.7,0.2l0.3,0.2l0.1,0.2l0.1,0.7l0.1,0.3l0.2,0.3l0.9,1
	l0.3,0.5l0.2,0.6l0.1,0.7l-0.1,0.3L358,215l-0.1,0.3l0,0.3l0.1,0.3l0.1,0.3l-0.1,0.3l-0.1,0.3l-0.5,0.1l-0.1,0.2l0.1,0.3l0.2,0.3
	l0.4,0.4l0.3,0.2l0.3,0.2l0.4,0.1h0.3l0.4-0.2l0.2,1.1l-0.5,1.1l-0.8,0.9l-1.2,0.8l1.5,0.7l0.5,0.1l0.4-0.2l0.8-0.7l0.7-0.2l0.8,0.1
	l1.5,0.5l0.7,0.3l1.3-0.2l0.6,0.1l0.3,0.3l0.1,0.4l0.1,0.5l0.2,0.5l0.3,0.3l0.4,0.1l1.5,0.1l1.4-0.3l1.7-0.7l1-0.6l0.3,0l0.4,0.2
	l0.4,0.3l0.4-0.1l0.4-0.2l0.4-0.1l0.4,0.2l0.3,0.3l0.2,0.5l0.5,3.1l0.4,1.1l0.6,0.6l0.7,0.1l1.4-0.3l0.7,0.1l0.4,0.1l0.4,0.2
	l0.2,0.4l-0.2,0.6l-0.3,0.3l-1.1,0.2l0.1,0.4v0.9l0.1,0.3l0.2,0.2l0.5,0.1l0.3,0.2l0.3,0.4l0,0.4l-0.1,0.4l0,0.5l0.2,0.4l0.4,0.6
	l0.2,0.4l0.1,0.5l-0.1,0.4l0,0.3l0.3,0.3l0.5,0.3l0.2,0.2l0.2,0.3l0.2,0.9l-0.1,0.8l0,0.7l0.5,0.6l-1.6,0.7l-0.3,0.4l0,0.4l1,4
	l0.4-3.2l0.7,0.3l0.4,0.1l0.4,0.2l0.4,0.3l0.3,0.6l0.2,0.8l0,0.6l0.1,0.5l0.4,0.5l0.4,0.3l0.4,0.2l0.4,0.1l0.4,0l0.5-0.2l0.3-0.3
	l0.2-0.4l0.3-0.4l0.2-0.1h0.4l0.2-0.1l0.2-0.2l0.4-0.6l0.3-0.2l0.4-0.1l2-0.2l3.6-2.7l0.6,0.3l0.2,0.6l0.6,0.3l2.1,3.3l0.5,0.2
	l0.5,0l0.5-0.2l0.5-0.3l0.4-0.4l0.2-0.1h0.3l0.2,0.1l0.4,0.3l0.5,0.1l0.6,0.4l0.6,0.2l0.2,0.1l0.3,0.2l0.1,0.1L406,248l0,0.7
	L406,249l0.1,0.3l0.3,0.3l0.4,0.2l0.5,0.1l0.5-0.1l0.4-0.3l0.2-0.3l0.3-0.7l0.2-0.3l0.3-0.3l3.4-2.1l1.4-0.5l1.4-0.1l1.5,0.2l3,6.1
	l0.6-0.5l1.2-1.3l0.6-0.3l2.1-0.3l0.4,0.2l0.3,0.8l0.3,1.1l0.3,0.9l1.8,0.9l0.7,0.7l0.1,1.4l-0.2,0.8l-0.1,0.3l0,0.3l0.2,0.2
	l0.7,0.7l2,3.1l0.7,0.5l1.6,0.8l0.8,0.5l0.7,0.6l0.6,0.8l0.7,1.2l0,0.1l0.3-6.4v0.5l0.1,0.2l1.4-0.9l0.3-0.1l0.2,0.1l0.4,0.3
	l0.2,0.1l1-0.7l0.1-1.4l-0.2-1.5l0.2-1l0.3-0.1l1.3,0.1l0.6-0.1l0.4,0.1l0.3,0.4l0.6,1.9l0.2,0.4l0.4,0.2l0.9,0.1l0.4,0.2l0.5,0.3
	l0.8,0.3l1.5-0.3l1,0.2l0.2-0.1l0.2-0.1l0.5-0.2l0.1-0.1v0.1l0.2,0.6l0.1,0.5l0.1,0.3l0.1,0.1l1.2,0.9l2.2,0.6l0.7,0.7l0.5,0.8
	l0.5,0.6l2-0.1l0.3-0.1l0.4-0.3l0.7-1l0.4-0.4l0.8-0.3l0.5,0.5l1.1,3l0.5,0.7l0.6,0.4l0.8,0.2l0.8-0.2l0.8-0.4l0.8-0.2l0.8,0.5
	l0.4,0.2l1.2,0.1l0.3,0.3l0.2,0.7l0.3,1.4l0.5,1.1l0.6,0.4l0.7,0.2l0.8,0.4l1.1,1.1l0.4,0.2l0.6,0l0.6-0.1l0.6-0.2l0.5-0.3l1.2-1.3
	l0.5-0.2h0.4l2,0.6l0.3,0.3l-0.1,0.7L480,271l-0.8,0.5l-0.4,0.3l-0.4,1.1l0.1,1l0.4,0.9l0.8,1.3l1,1.2l0.2,0.5L480.9,278.4z
	 M325,386.5l0.2-0.2h0.1l0.2,0.2l3,0.4l1.4-0.3l0.6,0l0.7,0.5l0.9-0.4l0.5-0.1l0.2,0.3l0.2,0.2l0.9-0.1l0.3,0.4l-0.4,0.4L325,386.5z
	"/>
<g>
	<path class="st1" d="M233,554.2L233,554.2c-5.7-1.4-9.8-4.2-12.5-8.5c-2.7-4.3-3.3-9.2-2-14.8c1.4-5.5,4.2-9.5,8.6-12
		s9.3-3,14.9-1.6l0.1,0l1.4-5.8l9,2.2l-1.4,5.8l0.2,0c5.6,1.4,9.8,4.2,12.5,8.4c2.7,4.2,3.4,9,2,14.5c-1.4,5.6-4.3,9.7-8.6,12.2
		c-4.4,2.6-9.4,3.1-15,1.8l-0.2,0l-1.5,5.9l-9-2.2L233,554.2z M234.8,546.8l5.5-22.1l-0.2,0c-3.1-0.8-5.8-0.4-8.1,1
		c-2.3,1.5-3.8,3.9-4.7,7.4c-0.9,3.6-0.7,6.6,0.6,9c1.3,2.4,3.5,4,6.7,4.7L234.8,546.8z M244,549.1c3.2,0.8,5.9,0.4,8.2-1.1
		c2.3-1.5,3.9-4.1,4.8-7.7c0.9-3.5,0.6-6.4-0.7-8.7s-3.6-3.9-6.8-4.6l-0.2,0l-5.5,22.1L244,549.1z"/>
	<path class="st1" d="M185.3,512.4l17.3,8.1l5.6-11.9l-20.3-9.5l3-6.5l28.6,13.4L200,547.9l-28.6-13.4l3-6.5l20.2,9.5l4.9-10.5
		l-17.3-8.1L185.3,512.4z"/>
	<path class="st1" d="M159.3,456.5l6.8,4.9l-6.7,9.2l23,16.6l6.7-9.2l6.9,5l-10.3,15.4l-2.9-2.1c-2.2,0.2-4.6,1.1-7.4,2.9
		s-6,5-9.7,9.6l-12.1,14.6l-24.4-17.6l22.9-31.7l-4.4-3.2L159.3,456.5z M158.2,503.5c2.9-3.7,5.7-6.6,8.3-8.7
		c2.7-2.1,5.2-3.6,7.7-4.6l-14.6-10.6L141,505.5l9.7,7L158.2,503.5z"/>
	<path class="st1" d="M115.3,455.3l13.1,13.9l9.6-9l-15.4-16.3l5.2-4.9l21.7,23l-33.6,31.7l-21.7-23l5.2-4.9l15.3,16.2l8.5-8
		l-13.1-13.9L115.3,455.3z"/>
	<path class="st1" d="M106,436.9l14-9.2l5.1,7.7l-38.6,25.3l-10.1-15.4c-2.9-4.4-4.1-8.7-3.5-12.7s2.7-7.3,6.4-9.7
		c3.7-2.4,7.5-3.1,11.4-2c3.9,1.1,7.3,3.8,10.2,8.3L106,436.9z M100.1,440.8l-5-7.6c-1.4-2.2-3.1-3.4-5-3.8
		c-1.9-0.3-3.8,0.1-5.6,1.3c-1.9,1.2-3,2.8-3.5,4.7c-0.5,1.9,0,3.9,1.4,6.1l5,7.6L100.1,440.8z"/>
	<path class="st1" d="M86.4,386.7l6.6,14.8l10.4-1.2l3.8,8.5l-48.7,4.3l-3.9-8.7l35.7-33.3l3.8,8.5L86.4,386.7z M85.4,402.4
		l-4.7-10.6l-14.2,12.6l0.1,0.2L85.4,402.4z"/>
	<path class="st1" d="M44.3,378.3l-2-9l38.1-8.6l-4.2-18.4l-38.1,8.6l-2-9l38.1-8.6l-1.2-5.5l18.1-4.1l2,9L82,335.2l7.4,32.9
		L44.3,378.3z"/>
	<path class="st1" d="M79.8,310.8l0.7,9.2l-46.1,3.3l-0.7-9.2L79.8,310.8z"/>
	<path class="st1" d="M79.3,297.3l-0.6,10l-19.2-11.1c-1.4,2.4-3.2,4.1-5.3,5.2c-2.1,1.1-4.5,1.6-7.3,1.4c-4.5-0.3-8-2-10.2-5.1
		s-3.3-7.4-2.9-12.7l0.9-16l46.1,2.7l-0.5,9.3l-16.9-1l-0.5,7.9L79.3,297.3z M41.3,278.6l-0.4,6.7c-0.1,2.6,0.4,4.5,1.6,5.9
		c1.2,1.4,3,2.1,5.4,2.3c2.4,0.1,4.3-0.4,5.9-1.7c1.5-1.2,2.4-3.1,2.5-5.6l0.4-6.7L41.3,278.6z"/>
	<path class="st1" d="M77,218.7l15.6,6.2l-3.4,8.6l-42.9-17.2l6.8-17.1c2-4.9,4.8-8.3,8.4-10.1c3.6-1.8,7.5-1.9,11.6-0.3
		s6.8,4.4,8.2,8.2c1.4,3.8,1.1,8.2-0.9,13.1L77,218.7z M70.4,216l3.4-8.5c1-2.4,1-4.5,0.2-6.2c-0.8-1.8-2.2-3-4.3-3.9
		c-2.1-0.8-4-0.9-5.8-0.2c-1.8,0.7-3.2,2.2-4.2,4.7l-3.4,8.5L70.4,216z"/>
	<path class="st1" d="M109,154.2c4.8,3.1,7.8,7.1,8.9,12.1c1.2,5,0.2,9.9-2.9,14.8c-3.1,4.8-7.1,7.7-12.2,8.7s-9.9,0-14.7-3.1
		l-7-4.5c-4.8-3-7.7-7.1-9-12.1c-1.2-5-0.3-9.9,2.8-14.7c3.1-4.8,7.2-7.8,12.2-8.8s10,0,14.7,3L109,154.2z M97,157.5
		c-3-1.9-6-2.8-8.9-2.5c-2.9,0.3-5.2,1.7-6.9,4.4c-1.7,2.7-2,5.3-1,8c1,2.7,3,5,6.1,7l7.1,4.5c3.1,2,6.1,2.9,9,2.6s5.2-1.7,6.9-4.3
		c1.7-2.7,2.1-5.4,1.1-8.1c-1-2.7-3-5.1-6.1-7.1L97,157.5z"/>
	<path class="st1" d="M120.7,111.6l-14,14.9l6.6,6.2l5.4-5.8c3.6-3.9,7.5-6,11.7-6.4s7.8,0.9,11.1,4c3.2,3,4.8,6.7,4.7,10.9
		c-0.1,4.2-2,8.2-5.6,12.1l-12.1,12.8l-33.6-31.7l20.7-21.9L120.7,111.6z M118.5,137.7l11.4,10.8l5.4-5.8c1.8-1.9,2.6-3.9,2.4-6
		c-0.2-2.1-1-3.9-2.7-5.4c-1.6-1.5-3.4-2.2-5.4-2.2c-2,0-4,1-5.7,2.8L118.5,137.7z"/>
	<path class="st1" d="M175.1,94.5c3.3,4.6,4.6,9.4,3.9,14.5c-0.7,5.1-3.4,9.3-8.1,12.7c-4.6,3.3-9.4,4.6-14.5,3.6
		c-5.1-0.9-9.2-3.7-12.6-8.3l-4.9-6.7c-3.3-4.6-4.6-9.4-3.9-14.5c0.7-5.1,3.3-9.3,7.9-12.6c4.6-3.4,9.5-4.6,14.6-3.7
		c5.1,0.9,9.3,3.6,12.6,8.2L175.1,94.5z M162.7,93.2c-2.1-2.9-4.6-4.8-7.4-5.6c-2.8-0.8-5.5-0.3-8,1.6c-2.6,1.9-3.9,4.2-3.9,7.1
		s1,5.8,3.1,8.7l4.9,6.8c2.2,3,4.6,4.9,7.4,5.7c2.8,0.8,5.4,0.3,8-1.5c2.6-1.9,3.9-4.3,4-7.2c0.1-2.9-1-5.9-3.1-8.8L162.7,93.2z"/>
	<path class="st1" d="M202.4,58.5l-11.8,5.7l17.1,35.1l-8.3,4.1l-17.1-35.1L170.6,74l-3.1-6.4l31.8-15.5L202.4,58.5z"/>
	<path class="st1" d="M252.7,64.1c1.6,5.4,1.2,10.4-1.3,15c-2.4,4.6-6.4,7.6-11.9,9.2c-5.5,1.6-10.4,1.1-14.9-1.5
		c-4.4-2.6-7.5-6.6-9-12l-2.3-8c-1.6-5.4-1.2-10.4,1.2-15c2.4-4.6,6.3-7.6,11.8-9.2c5.5-1.6,10.5-1.1,15,1.5c4.5,2.6,7.5,6.6,9.1,12
		L252.7,64.1z M241.5,58.6c-1-3.5-2.7-6.1-5.1-7.8s-5.1-2.1-8.1-1.3c-3,0.9-5.1,2.7-6.1,5.4c-1,2.7-1,5.8,0,9.3l2.3,8.1
		c1,3.5,2.7,6.2,5,7.9c2.3,1.7,5,2.2,8,1.3c3-0.9,5.1-2.7,6.2-5.4c1.1-2.7,1.1-5.8,0.1-9.4L241.5,58.6z"/>
	<path class="st1" d="M305.1,89.2l-8.3,0.7l-1-11.3L267.5,81l1,11.3l-8.5,0.7l-2.3-18.4l3.5-0.3c1.5-1.6,2.8-3.9,3.7-7.1
		c1-3.1,1.3-7.7,1-13.6l-0.4-18.9l29.9-2.6l3.4,38.9l5.5-0.5L305.1,89.2z M275.2,52.9c0.2,4.7,0,8.7-0.6,12
		c-0.6,3.3-1.6,6.2-2.9,8.5l18-1.6L287,40.1l-12,1L275.2,52.9z"/>
	<path class="st1" d="M335.1,71.5L319,69.6l-4.3,9.5l-9.3-1.1L326.6,34l9.4,1.1l10.4,47.7l-9.3-1.1L335.1,71.5z M322.1,62.7
		l11.6,1.3l-3.6-18.7l-0.2,0L322.1,62.7z"/>
	<path class="st1" d="M349.3,83.8l13.5-44.2l14.9,4.6c5.2,1.6,8.9,3.8,11.2,6.8c2.3,2.9,2.8,6.4,1.6,10.4c-0.6,2-1.7,3.7-3.3,5
		c-1.6,1.3-3.5,2-5.8,2.2c2.5,1.4,4.1,3.2,4.8,5.5c0.8,2.3,0.8,4.6,0,7.1c-1.3,4.2-3.7,7-7.1,8.3c-3.5,1.3-7.7,1.2-12.9-0.4
		L349.3,83.8z M364.1,67l-3.9,12.7l8.2,2.5c2.3,0.7,4.3,0.8,5.8,0.1c1.5-0.6,2.6-2,3.2-4c0.7-2.2,0.6-4-0.1-5.4
		c-0.7-1.5-2.2-2.5-4.5-3.2L364.1,67z M366,60.9l6.4,2c2.4,0.7,4.3,0.8,5.9,0.2c1.6-0.6,2.6-1.8,3.2-3.7c0.6-2,0.4-3.7-0.5-5.1
		c-1-1.4-2.8-2.4-5.3-3.2l-6.1-1.9L366,60.9z"/>
	<path class="st1" d="M410.1,55.5l8.2,4.4l-18.6,34.4l16.6,9l18.6-34.4l8.2,4.4l-18.6,34.4l4.9,2.7l-8.8,16.3l-8.2-4.4l5.4-10
		l-29.7-16.1L410.1,55.5z"/>
	<path class="st1" d="M437.5,126.5l-7.4-5.6L458,84.1l7.4,5.6L437.5,126.5z"/>
	<path class="st1" d="M444.4,131.4l32.5-32.8l11.1,11c3.9,3.8,6.1,7.6,6.8,11.2s-0.5,7-3.4,10c-1.5,1.5-3.3,2.5-5.2,2.9
		c-2,0.4-4,0.1-6.2-0.8c1.6,2.4,2.1,4.7,1.8,7.1c-0.4,2.4-1.5,4.4-3.3,6.3c-3.1,3.1-6.5,4.5-10.2,4.1c-3.7-0.4-7.4-2.5-11.2-6.3
		L444.4,131.4z M465.4,123.4l-9.4,9.4l6.1,6c1.7,1.7,3.4,2.7,5.1,2.8c1.7,0.2,3.2-0.5,4.7-2c1.6-1.6,2.4-3.2,2.5-4.8
		c0.1-1.6-0.8-3.3-2.4-4.9L465.4,123.4z M469.9,118.9l4.7,4.7c1.8,1.7,3.5,2.7,5.1,2.9s3.2-0.4,4.5-1.8c1.5-1.5,2.1-3.1,1.9-4.8
		c-0.2-1.7-1.3-3.4-3.2-5.3l-4.5-4.5L469.9,118.9z"/>
	<path class="st1" d="M524.7,213.1l-2.2-4.9l-17.7,7.7l-3.7-8.5l17.7-7.7l-2.2-5.1l-21.8-1.7l-4.6-10.6l28.7,3.3l14-21.2l4.6,10.5
		L524.3,192l1.9,4.4l17.3-7.6l3.7,8.5l-17.3,7.6l1.9,4.3l21.4,1.8l4.6,10.5l-24.9-3.9l-17.2,23.1l-4.6-10.6L524.7,213.1z"/>
	<path class="st1" d="M536.5,254.5l-0.9-5.1l-19,3.5l-1.7-9.1l45.4-8.4l1.7,9.1l-18.6,3.4l0.7,4l20.8,8.6l2.1,11.1l-24-11.4
		l-21.2,21l-2-11.1L536.5,254.5z"/>
	<path class="st1" d="M560.8,313.8l-0.2-20.9l-39.1,0.4l-0.1-9.3l46.2-0.4l0.3,30.1L560.8,313.8z"/>
	<path class="st1" d="M540.6,356.8l-2.5,0.1l0,0.2l20.3,13.8l-2.3,9.5l-32.8-24c-2.6-2-4.5-4.1-5.7-6.2c-1.2-2.1-1.4-4.9-0.6-8.1
		c0.1-0.5,0.3-1.1,0.5-1.8c0.2-0.7,0.3-1.1,0.5-1.5l6.9,1.6c-0.1,0.2-0.2,0.6-0.4,1.2c-0.2,0.6-0.3,1-0.3,1.3
		c-0.4,1.6-0.3,3,0.2,3.9c0.5,1,1.5,1.9,2.8,2.8l1.5,1.1l36.4-8.1l-2.3,9.7L540.6,356.8z"/>
	<path class="st1" d="M521.4,394.5l2.1-4.7l-17.7-7.8l3.7-8.5l42.3,18.6l-3.7,8.5l-17.3-7.6l-1.6,3.7l12.4,18.8l-4.6,10.4L523.6,403
		l-29.4,5.4l4.5-10.3L521.4,394.5z"/>
	<path class="st1" d="M501.3,427.5l-13.9-9.4l5.2-7.7l38.2,26l-10.4,15.2c-3,4.4-6.5,7.1-10.4,8.1c-4,1-7.8,0.3-11.4-2.2
		c-3.7-2.5-5.7-5.7-6.2-9.8c-0.5-4,0.7-8.2,3.7-12.6L501.3,427.5z M507.2,431.6l-5.1,7.6c-1.5,2.1-2,4.1-1.6,6
		c0.4,1.9,1.5,3.5,3.3,4.7c1.8,1.2,3.7,1.7,5.7,1.5c1.9-0.3,3.6-1.5,5.1-3.6l5.1-7.6L507.2,431.6z"/>
	<path class="st1" d="M462.5,464.9l11.1-11.8l-5.1-9.1l6.4-6.8l22.6,43.3l-6.5,6.9l-44.4-20.3l6.4-6.8L462.5,464.9z M477.3,459.8
		l-8,8.5l17.1,8.3l0.1-0.1L477.3,459.8z"/>
	<path class="st1" d="M435.7,474.9l7.2-5.8l29,36l-7.2,5.8L435.7,474.9z M461.7,519.2l6.6-5.3l4.1,5l-6.6,5.3L461.7,519.2z
		 M474,509.3l6.6-5.3l4.1,5l-6.6,5.3L474,509.3z"/>
	<path class="st1" d="M397.3,499.5l7.9-4.7l9.8,16.5l16.2-9.6l-9.8-16.5l8-4.7l23.5,39.8l-8,4.7l-10.1-17.1l-16.2,9.6l10.1,17.1
		l-7.9,4.7L397.3,499.5z"/>
	<path class="st1" d="M379.8,555.3l-8.8,3.1l-15.2-43.6l8.8-3.1l10.2,29.1l0.2,0l7.4-35.3l8.7-3l15.2,43.6l-8.7,3L387.4,520l-0.2,0
		L379.8,555.3z"/>
</g>
</svg>
